<svg xmlns="http://www.w3.org/2000/svg" width="1024" height="1536" viewBox="0 0 1024 1536" version="1.1">
	<rect x="0" y="0" width="100%" height="100%" fill="#FFFFFF" />
	<path d="M 505 73.496 C 482.294 78.635, 465.649 87.435, 454.908 99.977 C 452.484 102.808, 447.698 107.854, 444.273 111.190 C 430.552 124.553, 425.259 139.574, 429.410 153.368 C 430.403 156.668, 430.591 159.744, 430.044 163.770 C 428.837 172.668, 430.732 184.067, 436.235 201 C 440.051 212.742, 441.225 217.782, 441.077 221.789 C 440.834 228.347, 443.105 236.415, 446.646 241.578 C 448.310 244.003, 450.579 250.270, 452.593 258 C 456.504 273.013, 461.076 284.175, 467.174 293.603 C 471.609 300.458, 476.449 311.790, 478.992 321.271 C 480.478 326.812, 480.196 327.291, 471.488 334.009 C 465.850 338.359, 457.945 341.574, 423 353.731 C 372.502 371.298, 361.321 374.965, 358.210 374.982 C 354.316 375.003, 348.355 377.866, 345.362 381.153 C 337.285 390.021, 328.374 407.116, 321.985 426 C 319.659 432.875, 316.193 442.320, 314.284 446.988 C 312.375 451.657, 310.185 458.756, 309.418 462.765 C 308.651 466.774, 307.364 471.330, 306.558 472.889 C 305.752 474.447, 304.342 478.710, 303.424 482.361 C 302.507 486.013, 301.377 489, 300.912 489 C 300.447 489, 291.390 485.016, 280.784 480.148 C 259.183 470.231, 211.143 450.524, 210.395 451.272 C 209.297 452.369, 223.996 459.921, 239.833 466.396 C 253.230 471.873, 280.810 484.389, 293.500 490.749 C 307.752 497.893, 309.209 499.059, 323.494 514.750 C 326.123 517.637, 328.959 520, 329.796 520 C 330.634 520, 333.866 517.571, 336.978 514.603 C 346.390 505.625, 365.305 497.530, 387.500 492.981 C 393 491.854, 410.550 489.363, 426.500 487.446 C 442.450 485.530, 460.900 483.021, 467.500 481.871 C 474.100 480.721, 480.387 479.717, 481.471 479.640 C 482.960 479.534, 484.517 481.460, 487.827 487.500 C 497.509 505.169, 537.181 583.152, 536.722 583.612 C 536.451 583.882, 534.555 582.168, 532.509 579.802 C 528.053 574.650, 519.064 557.858, 499.039 517.279 L 484.125 487.058 479.312 488.555 C 469.403 491.637, 434.535 499.977, 406.500 505.969 C 390.550 509.379, 368.725 514.342, 358 516.999 C 347.275 519.655, 334.825 522.564, 330.334 523.463 C 320.677 525.396, 319.462 525.055, 306.604 516.807 C 294.727 509.188, 194.810 458.283, 188.102 456.433 C 185.864 455.816, 185.746 455.979, 186.325 458.874 C 186.950 462, 204.956 494.976, 219.702 520 C 224.077 527.425, 230.054 538.167, 232.983 543.870 C 237.808 553.265, 253.019 576.956, 261.173 587.776 L 264.395 592.052 261.674 600.407 C 258.494 610.172, 253.288 618.660, 244.292 628.744 C 238.166 635.612, 237.631 636.627, 234.010 648.244 C 231.909 654.985, 229.385 662.866, 228.401 665.758 C 225.637 673.886, 227.010 680.715, 237.460 710.827 C 243.491 728.204, 247.973 735.433, 254.876 738.917 C 256.869 739.923, 263.129 741.904, 268.787 743.318 C 274.445 744.733, 280.295 746.532, 281.787 747.316 C 283.279 748.100, 287.570 750.374, 291.323 752.371 C 299.395 756.665, 302.823 756.880, 308.662 753.458 C 311.048 752.060, 313 751.206, 313 751.561 C 313 751.916, 310.461 757.862, 307.357 764.775 C 302.775 774.980, 301.565 778.818, 300.923 785.188 C 299.936 794.976, 297.779 802.499, 293.538 810.940 C 291.725 814.548, 288.422 821.775, 286.198 827 C 283.973 832.225, 279.831 841.450, 276.992 847.500 C 267.937 866.801, 261.015 883.958, 253.998 904.500 C 247.383 923.865, 241.174 939.276, 233.596 955.144 C 229.966 962.743, 214.734 986.594, 205.599 998.983 C 199.897 1006.716, 199.914 1007.771, 205.987 1023.429 C 208.136 1028.968, 210.207 1034.850, 210.590 1036.500 C 210.973 1038.150, 212.361 1041.650, 213.674 1044.277 L 216.061 1049.055 211.405 1056.277 C 208.843 1060.250, 201.635 1068.775, 195.386 1075.223 C 184.982 1085.956, 183.881 1087.458, 182.334 1093.022 C 180.999 1097.825, 179.444 1100.409, 174.918 1105.349 C 170.140 1110.562, 167.724 1112.244, 160.345 1115.489 C 141.626 1123.721, 136.517 1128.633, 137.350 1137.594 L 137.823 1142.689 122.162 1153.139 C 104.865 1164.680, 91.825 1171.170, 82.125 1173.064 C 76.386 1174.185, 74.971 1174.999, 67.957 1181.220 C 61.180 1187.232, 56.963 1192.793, 57.015 1195.651 C 57.024 1196.118, 55.121 1198.143, 52.787 1200.150 C 48.896 1203.497, 48.626 1204.034, 49.534 1206.616 C 50.829 1210.300, 59.305 1217.046, 72.549 1224.935 C 101.360 1242.098, 146.009 1257.266, 172.029 1258.730 C 185.229 1259.473, 188.154 1257.952, 196.915 1245.783 C 198.244 1243.938, 200.368 1241.646, 201.637 1240.689 C 203.853 1239.017, 204.184 1239.052, 210.214 1241.590 C 218.239 1244.968, 224.374 1244.517, 233.005 1239.917 C 242.480 1234.867, 244.340 1232.396, 247.485 1220.689 C 248.990 1215.085, 251.332 1208.309, 252.688 1205.631 C 256.671 1197.768, 257.958 1189.203, 258.042 1170 C 258.135 1148.888, 258.804 1144.211, 262.326 1140.024 C 264.484 1137.460, 265 1135.830, 265 1131.582 C 265 1124.383, 267.038 1118.200, 272.570 1108.618 C 275.148 1104.153, 277.332 1100.405, 277.424 1100.288 C 277.515 1100.172, 282.394 1101.634, 288.266 1103.538 C 301.375 1107.789, 306.068 1108.001, 308.848 1104.466 C 312.935 1099.270, 325.169 1072.713, 327.182 1064.666 C 328.515 1059.335, 331.131 1053.116, 334.716 1046.754 C 337.736 1041.393, 343.360 1030.143, 347.213 1021.754 C 360.421 993, 369.637 972.495, 372.497 965.500 C 374.071 961.650, 375.660 958.141, 376.026 957.703 C 376.393 957.265, 377.004 963.873, 377.384 972.387 C 377.764 980.901, 378.516 991.835, 379.055 996.684 C 380.495 1009.643, 388.765 1062.610, 391.518 1076.500 C 392.825 1083.100, 395.699 1098.850, 397.903 1111.500 C 402.281 1136.623, 403.424 1142.301, 407.874 1161 C 410.901 1173.722, 416.044 1202.617, 418.020 1218 C 418.621 1222.675, 419.509 1238.571, 419.994 1253.325 C 421.049 1285.392, 420.099 1283.155, 437.248 1293.934 C 454.185 1304.579, 453.361 1303.692, 453.816 1311.751 C 454.132 1317.341, 453.802 1319.467, 452.104 1322.797 C 449.732 1327.445, 449.500 1330.267, 451.109 1334.882 C 452.461 1338.762, 450.955 1343.144, 447.488 1345.416 C 446.218 1346.248, 444.637 1348.633, 443.975 1350.715 C 443.313 1352.797, 441.525 1356.525, 440.002 1359 C 438.479 1361.475, 436.467 1365.869, 435.531 1368.765 C 434.595 1371.660, 432.305 1376.160, 430.442 1378.765 C 428.579 1381.369, 426.316 1385.070, 425.414 1386.988 C 424.512 1388.907, 421.384 1393.059, 418.462 1396.214 C 415.540 1399.370, 412.861 1402.863, 412.508 1403.976 C 412.154 1405.089, 411.459 1406, 410.962 1406 C 409.061 1406, 393.860 1424.711, 391.088 1430.463 C 387.340 1438.240, 384.790 1450.275, 384.628 1460.947 L 384.500 1469.395 388.487 1472.107 C 393.214 1475.322, 404.633 1479.393, 414.815 1481.492 C 424.286 1483.444, 447.914 1483.465, 460.781 1481.533 C 477.607 1479.006, 495.329 1473.037, 502.700 1467.415 C 507.368 1463.855, 508.633 1460.813, 509.943 1450 C 511.673 1435.725, 511.692 1435.679, 515.383 1436.479 C 523.839 1438.312, 525.897 1438.258, 529.542 1436.108 C 534.968 1432.906, 544.018 1424.844, 545.379 1422 C 547.342 1417.896, 546.747 1371.666, 544.594 1361 C 542.519 1350.725, 540.841 1344.969, 538.180 1339 C 537.076 1336.525, 535.870 1331.350, 535.499 1327.500 C 535.128 1323.650, 533.775 1317.350, 532.492 1313.500 C 531.208 1309.650, 529.852 1304.397, 529.477 1301.826 C 528.813 1297.274, 528.889 1297.092, 532.394 1294.826 C 536.902 1291.911, 537.363 1290.473, 536.090 1283.283 C 535.167 1278.070, 534.196 1212.914, 533.375 1101 C 533.128 1067.361, 532.676 1057.702, 529.796 1024.500 C 527.862 1002.202, 526.751 984.227, 527.108 981 C 527.443 977.975, 527.253 969.975, 526.685 963.223 C 525.966 954.664, 525.972 950.628, 526.705 949.895 C 527.439 949.161, 535.528 949.211, 553.579 950.062 C 618.045 953.101, 654.707 948.306, 675.295 934.141 L 679.715 931.100 684.387 937.938 C 691.886 948.912, 700.395 957.603, 705.578 959.583 C 709.435 961.056, 710.873 961.142, 715.140 960.157 C 723.656 958.191, 745.104 948.743, 748.682 945.382 C 752.838 941.476, 752.951 938.460, 749.395 926.362 C 746.903 917.883, 746.826 916.895, 747.601 903.500 C 749.015 879.088, 747.829 850.649, 744.442 827.757 C 742.596 815.283, 742.618 808.849, 744.524 804.289 C 745.362 802.284, 746.329 796.671, 746.674 791.817 L 747.300 782.992 742.679 773.746 C 738.337 765.058, 735.225 753.401, 736.841 751.880 C 737.204 751.540, 744.925 750.047, 754 748.563 C 763.075 747.080, 776.575 744.520, 784 742.875 C 791.425 741.229, 802.141 739.231, 807.814 738.434 C 813.486 737.637, 819.360 736.348, 820.866 735.569 C 825.776 733.030, 832.103 725.021, 836.588 715.668 C 839.006 710.626, 842.451 703.821, 844.242 700.546 C 847.346 694.874, 847.494 694.118, 847.370 684.546 C 847.067 661.158, 845.258 643.980, 841.941 633 C 839.277 624.181, 838.638 620.018, 837.947 607 C 836.886 587.015, 830.699 539.924, 826.541 520.185 C 825.560 515.529, 825 507.598, 825 498.371 C 825 485.095, 824.701 482.676, 821.451 469.686 C 819.499 461.884, 817.495 451.900, 816.997 447.500 C 813.971 420.779, 811.871 410.722, 806.543 397.439 C 799.930 380.954, 790.900 368.813, 784.275 367.501 C 760.254 362.743, 683.499 336.366, 656.322 323.530 C 641.313 316.441, 632.568 309.562, 622.380 296.830 C 619.445 293.162, 615.224 288.887, 613.002 287.330 L 608.961 284.500 609.230 269.062 L 609.500 253.624 613 252.733 C 617.759 251.522, 621.256 247.955, 624.851 240.645 C 630.185 229.800, 632.410 219.922, 632.429 207 C 632.450 192.927, 630.571 187.648, 624.086 183.554 L 620 180.975 620 165.164 C 620 125.565, 609.852 103.752, 588.563 97.588 C 586.126 96.883, 584.068 95.514, 583.385 94.145 C 579.567 86.487, 569.378 80.954, 550 76.014 C 534.729 72.122, 515.759 71.060, 505 73.496 M 526.199 212.588 C 517.434 216.956, 511 226.867, 511 236 C 511 244.986, 517.844 255.751, 526.455 260.310 C 532.019 263.256, 542.827 263.235, 548.545 260.268 C 552.625 258.151, 561 249.916, 561 248.022 C 561 247.460, 561.498 247, 562.107 247 C 562.716 247, 562.955 247.675, 562.638 248.500 C 561.806 250.669, 562.903 250.342, 564.953 247.810 L 566.726 245.620 567.921 247.852 C 569.253 250.341, 570.079 260.130, 572.532 302.500 C 573.455 318.450, 574.774 333.881, 575.462 336.792 C 576.617 341.678, 576.568 342.161, 574.816 343.098 C 572.510 344.333, 560.560 354.425, 552.879 361.625 L 547.259 366.895 549.727 369.197 C 555.968 375.020, 569.157 392.927, 573.937 402.067 C 576.832 407.603, 578.990 412.343, 578.733 412.600 C 577.989 413.344, 573.073 407.181, 565.230 395.670 C 558.725 386.124, 557.646 385, 554.980 385 C 552.897 385, 552 385.489, 552 386.624 C 552 387.517, 550.425 391.737, 548.500 396 C 544.346 405.199, 544.256 407.415, 547.503 420.460 C 551.327 435.826, 552.125 444.698, 551.800 468.251 C 551.635 480.214, 551.725 489.997, 552 489.990 C 552.275 489.984, 553.794 486.496, 555.375 482.239 C 556.956 477.983, 562.523 463.475, 567.745 450 C 576.671 426.966, 586.961 398.284, 594.471 375.500 C 609.112 331.089, 614.238 314.577, 615.188 308.768 C 616.265 302.188, 616.226 301.940, 613.440 297.768 L 610.591 293.500 609.820 298 C 608.062 308.258, 596.942 324.833, 585.142 334.783 L 580.089 339.044 579.090 335.272 C 577.587 329.599, 575.149 303.948, 574.028 282 C 572.840 258.754, 572.073 254.187, 567.110 240.759 C 565.024 235.117, 563.003 229.225, 562.619 227.666 C 561.822 224.437, 561.974 224.488, 568.965 229.812 C 573.159 233.005, 574.951 232.921, 573.673 229.590 C 572.861 227.475, 552.182 212.975, 547.744 211.410 C 541.183 209.095, 532.226 209.585, 526.199 212.588 M 530.145 217.070 C 522.359 220.189, 517.987 226.730, 518.022 235.210 C 518.063 245.116, 524.237 253.406, 533.505 256.001 C 538.769 257.475, 542.437 256.743, 548.248 253.058 C 558.130 246.791, 560.085 231.395, 552.114 222.624 C 547.004 217.002, 536.773 214.415, 530.145 217.070 M 494.775 351.250 C 493.079 369.058, 495.551 421.848, 500.605 475.722 C 501.249 482.587, 503 485.035, 503 479.071 C 503 474.274, 506.939 453.083, 510.169 440.500 C 511.863 433.900, 515.713 422.316, 518.725 414.759 L 524.200 401.017 521.437 396.259 C 518.269 390.804, 517.380 390.036, 514.203 390.015 C 512.662 390.005, 511.347 391.016, 510.203 393.092 C 506.186 400.384, 502.666 405.420, 502.309 404.388 C 501.753 402.776, 508.467 388.475, 511.801 384.169 C 513.364 382.151, 515.226 379.042, 515.938 377.261 C 517.844 372.495, 524.336 367, 528.062 367 C 529.743 367, 530.891 366.632, 530.613 366.183 C 530.335 365.733, 525.628 363.452, 520.152 361.114 C 513.494 358.271, 509.167 355.732, 507.088 353.447 C 504.563 350.672, 497.404 346, 495.678 346 C 495.456 346, 495.050 348.363, 494.775 351.250 M 580.075 357.268 C 579.964 359.874, 586.712 380.235, 588.447 382.530 C 590.756 385.584, 590.449 382.193, 587.887 376.333 C 586.724 373.675, 584.508 367.900, 582.962 363.500 C 581.416 359.100, 580.117 356.296, 580.075 357.268 M 664.967 492 C 659.174 492.383, 653.412 493.244, 652.163 493.913 C 650.915 494.581, 645.621 498.924, 640.399 503.564 L 630.906 512 635.146 512 C 637.479 512, 645.487 511.566, 652.943 511.036 C 660.400 510.506, 670.888 509.789, 676.250 509.443 L 686 508.813 685.991 505.157 C 685.987 503.146, 685.699 499.137, 685.352 496.250 L 684.721 491 680.111 491.151 C 677.575 491.234, 670.760 491.616, 664.967 492 M 312 583.893 C 312 585.484, 312.725 590.290, 313.610 594.572 C 314.658 599.637, 314.982 604.129, 314.540 607.429 C 314.166 610.218, 313.629 614.311, 313.347 616.524 C 313.010 619.167, 313.731 623.801, 315.448 630.024 C 316.885 635.236, 318.486 641.092, 319.007 643.037 C 319.585 645.199, 322.703 649.558, 327.028 654.252 C 334.251 662.091, 336.353 663.250, 347.499 665.546 C 350.305 666.123, 350.378 666.250, 348.638 667.523 C 346.883 668.806, 347.024 669.142, 351.145 673.504 C 359.149 681.975, 365.414 680.834, 382.736 667.749 C 388.106 663.692, 396.074 657.702, 400.442 654.437 C 404.810 651.171, 412.685 644.441, 417.942 639.479 C 423.199 634.518, 431.904 626.701, 437.286 622.110 C 446.904 613.905, 450.654 609.148, 449.624 606.462 C 448.827 604.385, 441.703 602.782, 438.566 603.975 C 435.952 604.969, 427.432 611.278, 404.500 629.203 C 392.048 638.935, 377.027 648.837, 370.712 651.476 C 366.798 653.111, 362 653.509, 362 652.199 C 362 650.871, 385.570 628.389, 401.794 614.240 C 411.058 606.161, 417 600.262, 417 599.145 C 417 598.136, 416.079 596.477, 414.954 595.458 C 413.117 593.796, 412.338 593.726, 407.342 594.774 C 404.280 595.416, 399.865 597.061, 397.530 598.430 C 391.708 601.842, 378.052 612.043, 369.225 619.575 C 365.199 623.010, 358.049 628.413, 353.336 631.582 C 343.521 638.180, 343.361 638.166, 338.062 630.207 C 334.372 624.666, 332.961 624.079, 334.966 628.917 C 336.675 633.043, 335.795 635.143, 333.699 631.943 C 332.526 630.154, 331.715 625.108, 330.889 614.464 C 329.919 601.951, 329.288 598.517, 327.039 593.500 C 323.638 585.911, 318.878 581, 314.923 581 C 312.366 581, 312 581.362, 312 583.893 M 515.781 595.996 C 509.119 596.850, 505.323 599.021, 503.888 602.796 C 503.002 605.125, 503.212 605.785, 505.449 607.709 C 509.712 611.376, 517.493 613.093, 534.378 614.090 C 549.046 614.957, 551.139 615.334, 561.851 619.037 C 568.228 621.242, 573.886 623.486, 574.423 624.023 C 576.123 625.723, 567.614 625.129, 558.289 622.896 C 552.791 621.581, 543.696 620.495, 534 619.997 C 523.113 619.438, 515.099 618.410, 507.072 616.543 C 491.595 612.943, 484 614.076, 484 619.984 C 484 626.155, 489.761 628.199, 541 640.214 C 554.425 643.363, 566.837 646.852, 569.021 648.092 C 571.442 649.467, 571.389 649.507, 566.753 649.805 C 562.498 650.078, 537.443 644.376, 491.712 632.727 C 487.428 631.636, 483.633 631.034, 483.278 631.388 C 479.638 635.028, 516.462 654.982, 538.500 661.310 C 548.911 664.300, 562.279 670.193, 559.875 670.733 C 558.144 671.122, 534.282 664.737, 519.750 659.996 C 514.938 658.426, 511 657.464, 511 657.858 C 511 659.285, 520.628 667.880, 526 671.249 C 529.025 673.146, 536 677.075, 541.500 679.981 C 547 682.887, 555.325 688.079, 560 691.519 C 572.901 701.010, 580.587 705.700, 584.421 706.419 C 586.329 706.777, 591.852 706.520, 596.695 705.848 C 601.538 705.177, 610.553 704.741, 616.728 704.881 C 627.710 705.129, 628.014 705.077, 630.620 702.470 L 633.285 699.806 632.573 681.653 C 632.182 671.669, 631.409 661.380, 630.856 658.788 C 629.713 653.429, 626.270 649.863, 617.423 644.869 C 610.474 640.948, 606.683 636.424, 600.631 624.828 C 592.995 610.197, 592.234 609.443, 578.585 602.964 C 571.938 599.810, 564.700 596.730, 562.500 596.120 C 558.075 594.893, 525.060 594.806, 515.781 595.996 M 442.162 622.043 C 440.325 623.162, 433.215 629.451, 426.360 636.017 C 419.505 642.583, 409.873 650.940, 404.956 654.587 C 400.039 658.234, 396.199 661.513, 396.422 661.873 C 396.644 662.234, 401.028 662.156, 406.163 661.701 C 424.894 660.040, 424.079 660.276, 429 655.068 C 431.475 652.448, 434.156 648.998, 434.957 647.402 C 435.758 645.806, 440.371 640.398, 445.207 635.385 C 450.093 630.319, 454 625.410, 454 624.335 C 454 619.720, 447.906 618.540, 442.162 622.043 M 338.063 637.432 C 336.811 638.766, 335.955 640.365, 336.162 640.986 C 336.369 641.607, 337.582 640.704, 338.857 638.979 C 341.701 635.133, 341.179 634.116, 338.063 637.432 M 629.108 647.651 C 634.463 653.415, 635.144 655.200, 638.454 672.149 C 642.065 690.642, 642.436 696.286, 640.607 704.924 C 638.693 713.964, 635.360 719.266, 629.810 722.097 C 625.997 724.042, 625.139 724.126, 620.233 723.028 C 617.270 722.364, 614.612 722.054, 614.328 722.339 C 613.410 723.257, 621.537 727.785, 627.028 729.416 C 629.962 730.287, 634.777 731, 637.727 731 C 644.822 731, 647.037 728.730, 650.526 717.880 C 655.747 701.641, 654.814 680.828, 648.057 662.855 C 643.999 652.061, 636.379 644.564, 628.143 643.265 L 624.500 642.690 629.108 647.651 M 309.699 656.780 C 306.034 660.830, 302.382 672.633, 301.431 683.500 C 299.955 700.372, 308.059 719.418, 319.115 725.059 C 323.795 727.446, 326.623 727.499, 331.628 725.293 L 335.500 723.587 330.500 723.005 C 324.414 722.298, 322.204 721.135, 318.135 716.501 C 313.779 711.540, 310.261 704.233, 308.388 696.259 C 306.272 687.248, 306.962 670.971, 309.839 662.043 C 310.983 658.492, 311.785 655.451, 311.620 655.287 C 311.456 655.122, 310.591 655.794, 309.699 656.780 M 147.367 1126.918 C 143.720 1129.142, 141 1132.690, 141 1135.223 C 141 1138.144, 142.595 1137.286, 147.422 1131.767 C 153.547 1124.766, 153.528 1123.161, 147.367 1126.918 M 192.692 1140.996 C 194.237 1143.744, 195.639 1145.578, 195.808 1145.071 C 196.268 1143.697, 192.122 1136, 190.922 1136 C 190.351 1136, 191.148 1138.248, 192.692 1140.996 M 176 1145.620 C 176 1146.027, 177.012 1149.316, 178.248 1152.930 C 179.904 1157.769, 180.586 1158.873, 180.835 1157.121 C 181.196 1154.578, 178.453 1146.398, 176.921 1145.451 C 176.415 1145.138, 176 1145.214, 176 1145.620 M 164.269 1157 C 164.622 1157.825, 166.169 1161.607, 167.706 1165.404 C 169.243 1169.201, 170.632 1171.633, 170.794 1170.808 C 171.225 1168.605, 167.193 1158.401, 165.275 1156.841 C 163.871 1155.699, 163.721 1155.723, 164.269 1157 M 140.340 1176.741 C 140.664 1177.266, 143.941 1179.451, 147.622 1181.598 C 151.302 1183.744, 156.946 1188.088, 160.163 1191.250 C 163.381 1194.412, 166.261 1197, 166.563 1197 C 166.866 1197, 166.300 1195.612, 165.307 1193.916 C 162.646 1189.373, 154.958 1182.516, 149.383 1179.714 C 143.397 1176.705, 139.532 1175.434, 140.340 1176.741 M 86.315 1199.622 C 85.442 1201.896, 87.059 1202.969, 95.864 1205.954 C 103.271 1208.465, 103.818 1208.528, 102.868 1206.754 C 102.302 1205.696, 100.188 1204.195, 98.170 1203.419 C 96.151 1202.642, 92.789 1201.129, 90.698 1200.058 C 87.403 1198.369, 86.818 1198.311, 86.315 1199.622 M 485 1348.401 C 485 1349.097, 492.231 1353.102, 492.679 1352.655 C 493.334 1351.999, 487.910 1348, 486.365 1348 C 485.614 1348, 485 1348.181, 485 1348.401 M 474 1362.757 C 474 1363.211, 476.025 1365.571, 478.500 1368 C 483.357 1372.767, 484.653 1372.118, 480.392 1367.054 C 477.657 1363.803, 474 1361.345, 474 1362.757 M 466 1377.330 C 466 1377.512, 468.025 1379.115, 470.500 1380.893 C 475.668 1384.604, 476.704 1383.402, 471.656 1379.551 C 468.767 1377.347, 466 1376.261, 466 1377.330 M 454.600 1404.838 C 454.254 1405.398, 454.765 1406.094, 455.735 1406.384 C 461.104 1407.991, 480.314 1412.019, 480.713 1411.621 C 481.266 1411.067, 464.123 1405.479, 458.865 1404.498 C 456.721 1404.099, 454.971 1404.238, 454.600 1404.838 M 420 1453.428 C 420 1454.401, 421.672 1455.064, 425.250 1455.508 C 433.244 1456.500, 438.421 1455.829, 438.815 1453.750 C 439.112 1452.182, 438.150 1452, 429.573 1452 C 421.945 1452, 420 1452.290, 420 1453.428" stroke="none" fill="#000000" fill-rule="evenodd"/>
</svg>