<svg xmlns="http://www.w3.org/2000/svg" width="1024" height="1536" viewBox="0 0 1024 1536" version="1.1">
	<rect x="0" y="0" width="100%" height="100%" fill="#FFFFFF" />
	<path d="M 504.204 72.173 C 487.228 74.303, 466.437 81.347, 458.652 87.607 C 456.368 89.443, 451.763 92.245, 448.417 93.834 C 444.247 95.814, 441.653 97.826, 440.167 100.231 C 438.974 102.160, 436.024 105.713, 433.610 108.127 C 430.523 111.214, 428.744 114.124, 427.611 117.939 C 425.602 124.702, 425.599 126.643, 427.586 132.124 C 428.810 135.500, 429.030 138.557, 428.549 145.500 C 427.898 154.884, 423.995 181.138, 421.460 193.189 C 419.839 200.896, 419.714 200.410, 425.187 207.643 C 430.668 214.887, 431.217 217.543, 429.366 227.852 C 426.642 243.024, 428.730 261.599, 433.989 268.985 C 435.215 270.707, 436.015 272.318, 435.768 272.566 C 435.520 272.814, 431.083 272.571, 425.908 272.026 C 413.192 270.686, 404.003 270.775, 401.063 272.265 C 399.629 272.992, 398.272 274.865, 397.767 276.818 L 396.908 280.136 391.204 275.027 C 388.067 272.217, 383.143 268.302, 380.263 266.326 L 375.026 262.734 355.763 265.479 C 345.168 266.988, 334.948 268.735, 333.050 269.361 C 328.252 270.945, 307.830 293.286, 306.197 298.738 C 305.551 300.893, 297.348 316.572, 287.969 333.578 C 275.359 356.442, 269.769 365.608, 266.516 368.750 C 262.549 372.582, 258.933 374.536, 260.500 372 C 265.264 364.292, 230.225 396.213, 222.862 406.289 C 219.964 410.255, 212.371 419.350, 205.990 426.500 C 199.608 433.650, 189.506 445.350, 183.542 452.500 C 177.577 459.650, 170.147 468.200, 167.031 471.500 C 163.915 474.800, 156.847 483.177, 151.323 490.116 C 140.054 504.274, 141.275 501.142, 134.447 533.409 C 132.479 542.709, 130.244 552.159, 129.480 554.409 C 126.994 561.736, 125.030 571.396, 125.015 576.370 C 125.002 580.521, 125.844 582.660, 130.724 590.870 C 141.659 609.265, 147.423 613.292, 164.500 614.465 C 170 614.843, 177.633 615.580, 181.463 616.102 C 190.536 617.341, 195.826 616.209, 212.824 609.388 C 220.209 606.425, 227.497 604, 229.020 604 C 232.623 604, 243.878 600.505, 250.742 597.256 C 257.648 593.986, 260.908 590.683, 264.994 582.817 L 268.275 576.500 301.272 556.718 C 319.421 545.839, 334.476 537.143, 334.728 537.395 C 334.980 537.647, 336.966 544.299, 339.142 552.177 C 343.818 569.108, 347.375 589.070, 349.492 610.265 C 350.336 618.708, 351.694 629.414, 352.512 634.057 C 353.329 638.701, 353.998 644.364, 353.999 646.643 C 354.001 653.410, 350.968 666.092, 347.881 672.221 C 344.533 678.869, 344.401 681.205, 346.695 693.172 C 348.367 701.890, 348.361 702.078, 346.271 706.380 C 343.448 712.191, 327.690 736.179, 325.477 738.034 C 324.515 738.840, 321.209 740.850, 318.130 742.500 L 312.531 745.500 308.898 755.500 C 306.119 763.149, 304.979 768.321, 304.053 777.500 C 302.855 789.361, 300.545 799.124, 282.997 866.500 C 275.652 894.698, 272.375 909.441, 271.519 918.138 C 270.885 924.569, 270.963 924.888, 274.018 928.368 C 278.838 933.858, 288.782 938.340, 296.333 938.428 C 304.516 938.523, 309.743 935.436, 318.799 925.159 L 325.673 917.359 331.086 921.213 C 341.972 928.963, 349.649 933.850, 355.260 936.601 C 358.417 938.150, 361 939.926, 361 940.548 C 361 941.171, 360.149 945.015, 359.108 949.090 C 356.091 960.907, 353.933 983.763, 354.207 1001 C 354.410 1013.737, 354.063 1018.391, 352.264 1027.107 C 351.060 1032.942, 348.710 1049.817, 347.042 1064.607 C 343.633 1094.849, 340.217 1116.125, 333.493 1149 C 325.464 1188.256, 318.005 1218.832, 310.952 1241.396 L 304.109 1263.293 305.974 1266.950 C 308.386 1271.677, 320.152 1282.755, 329.035 1288.662 C 332.866 1291.209, 336 1293.626, 336 1294.033 C 336 1294.439, 334.190 1297.483, 331.977 1300.797 C 326.532 1308.951, 324.004 1316.698, 323.152 1327.847 C 322.467 1336.805, 322.303 1337.305, 319.201 1339.847 C 317.393 1341.329, 315.530 1344.085, 314.979 1346.091 C 314.401 1348.200, 313.067 1350.115, 311.747 1350.731 C 307.541 1352.694, 297.391 1362.805, 295.569 1366.848 C 293.430 1371.590, 294.107 1375.954, 297.102 1376.737 C 298.208 1377.026, 298.889 1377.766, 298.616 1378.381 C 298.342 1378.997, 296.993 1382.200, 295.618 1385.500 C 293.312 1391.035, 288.647 1396.910, 273.126 1413.823 C 269.061 1418.252, 263.556 1426.353, 259.073 1434.500 C 257.257 1437.800, 254.008 1442.811, 251.852 1445.636 C 248.941 1449.451, 247.690 1452.257, 246.993 1456.544 C 246.463 1459.796, 244.951 1463.907, 243.527 1465.961 C 240.857 1469.814, 240.316 1473.854, 242.040 1477.075 C 243.343 1479.509, 256.319 1486.095, 265.238 1488.848 C 277.375 1492.594, 292.949 1494.342, 314.500 1494.378 C 339.448 1494.418, 348.562 1492.972, 363.750 1486.561 C 379.831 1479.773, 386.266 1473.515, 387.488 1463.477 C 388.817 1452.552, 388.651 1452.825, 393.522 1453.556 C 397.661 1454.176, 398.095 1453.992, 402.767 1449.621 L 407.669 1445.036 408.991 1423.150 C 410.455 1398.904, 410.174 1393.974, 406.512 1379.722 C 403.465 1367.863, 403.426 1365.946, 406.076 1358.407 C 407.934 1353.121, 408.118 1350.662, 407.826 1335 L 407.500 1317.500 413.500 1316.922 C 418.838 1316.409, 424 1314.719, 424 1313.485 C 424 1310.684, 444.946 1232.097, 451.049 1212 C 471.122 1145.900, 482.391 1099.671, 489.561 1054 C 490.900 1045.475, 491.996 1036.588, 491.997 1034.250 C 491.999 1031.912, 492.337 1030.035, 492.750 1030.078 C 493.163 1030.121, 499.433 1042.158, 506.685 1056.828 C 513.936 1071.498, 522.207 1087.546, 525.065 1092.490 L 530.261 1101.480 529.622 1110.572 L 528.983 1119.664 537.958 1138.966 C 542.895 1149.581, 547.212 1158.544, 547.553 1158.883 C 547.894 1159.223, 552.296 1159.453, 557.336 1159.395 C 564.700 1159.311, 568.358 1158.680, 575.956 1156.185 C 581.157 1154.477, 585.537 1153.203, 585.689 1153.355 C 586.520 1154.187, 597.082 1177.542, 599.321 1183.500 C 600.768 1187.350, 602.642 1195.137, 603.485 1200.804 C 605.150 1211.995, 606.257 1215.312, 610.584 1222.070 C 613.208 1226.170, 613.399 1227.133, 613.145 1235 C 612.636 1250.757, 614.596 1263.777, 619.436 1276.780 C 621.835 1283.226, 624.583 1291.330, 625.542 1294.789 C 627.234 1300.893, 627.583 1301.327, 637.393 1309.521 C 648.715 1318.978, 650.874 1319.635, 658.251 1315.872 L 662.423 1313.744 665.134 1316.992 C 666.626 1318.778, 668.868 1322.973, 670.118 1326.315 C 674.471 1337.956, 681.970 1342.399, 705.651 1347.372 C 726.888 1351.832, 749.556 1353.256, 762.566 1350.947 C 777.016 1348.383, 793.803 1341.329, 809.654 1331.161 C 818.099 1325.744, 822.507 1320.717, 823.598 1315.258 C 824.167 1312.414, 823.775 1311.654, 820.001 1308.283 C 817.671 1306.202, 813.230 1300.679, 810.133 1296.008 C 802.633 1284.701, 783.980 1265.605, 771 1255.946 C 765.225 1251.648, 758.785 1246.071, 756.688 1243.552 C 754.592 1241.032, 750.767 1237.891, 748.188 1236.571 C 744.945 1234.912, 739.715 1229.983, 731.223 1220.586 L 718.946 1207 722.902 1207 C 730.886 1207, 732.346 1201.352, 725.872 1195.504 C 720.507 1190.656, 714.171 1187.917, 706.776 1187.246 C 703.027 1186.906, 700.627 1186.193, 700.292 1185.318 C 699.999 1184.555, 697.882 1182.639, 695.588 1181.060 C 692.013 1178.601, 690.950 1176.965, 688.163 1169.626 C 685.192 1161.804, 684.025 1160.122, 674.705 1150.226 C 669.092 1144.267, 661.187 1134.544, 657.139 1128.620 L 649.777 1117.849 652.777 1110.174 C 655.631 1102.874, 659 1086.681, 659 1080.265 C 659 1078.214, 656.461 1073.392, 650.904 1064.889 C 639.431 1047.333, 630.234 1028.547, 613.750 989 C 604.110 965.870, 602.008 959.923, 603.328 959.517 C 603.973 959.319, 613.500 958.651, 624.500 958.032 C 645.607 956.845, 654.340 955.384, 661.271 951.882 C 666.926 949.026, 678.537 940.675, 683.565 935.848 L 687.631 931.946 691.511 937.581 C 693.646 940.680, 698.171 946.092, 701.568 949.608 L 707.743 956 714.971 956 C 723.433 956, 727.972 954.215, 731.598 949.460 L 734.084 946.201 732.523 927.351 C 728.160 874.674, 725.824 852.178, 722.903 834.685 C 721.010 823.345, 720.999 822.551, 722.630 814.960 C 724.856 804.602, 723.927 800.466, 715.472 783.096 C 711.913 775.782, 709 769.469, 709 769.067 C 709 768.664, 713.612 766.948, 719.250 765.252 C 724.888 763.556, 736.475 760.071, 745 757.508 C 753.525 754.945, 762.024 752.127, 763.886 751.246 C 768.663 748.985, 775.280 739.487, 783.714 722.785 C 793.028 704.341, 794.541 699.601, 794.343 689.500 C 794.257 685.100, 793.752 658.100, 793.221 629.500 C 792.543 592.972, 791.587 568.871, 790.006 548.500 C 788.017 522.860, 787.901 518.225, 789.002 508.500 C 790.351 496.582, 789.853 492.729, 783.393 465.071 C 781.300 456.109, 780.988 452.520, 781.175 439.571 C 781.421 422.462, 780.553 418.666, 772.348 400.988 C 768.548 392.801, 767.260 391.006, 763.192 388.230 C 760.589 386.454, 757.820 385, 757.039 385 C 756.259 385, 752.668 383.241, 749.060 381.090 C 736.837 373.805, 641.407 333, 636.593 333 C 635.344 333, 621.981 322.254, 614.878 315.537 C 612.044 312.858, 608.782 308.183, 606.447 303.458 C 602.630 295.734, 598.793 292.012, 594.636 292.004 C 592.989 292, 592.853 292.532, 593.460 296.583 C 593.838 299.104, 594.782 302.966, 595.558 305.164 C 596.685 308.359, 596.770 311.104, 595.981 318.831 C 594.565 332.703, 591.124 343.901, 578.719 375 C 572.686 390.125, 564.245 412.850, 559.962 425.500 C 553.164 445.574, 546.483 464.796, 535.979 494.500 L 533.151 502.500 533.075 482.211 C 532.968 453.299, 530.586 434.324, 525.489 421.780 L 523.158 416.045 530.829 401.041 C 535.048 392.788, 538.763 386.028, 539.085 386.018 C 539.407 386.008, 542.955 390.064, 546.970 395.031 C 550.986 399.998, 554.484 403.849, 554.745 403.589 C 556.244 402.089, 537.298 379.682, 528.721 372.813 C 525.590 370.305, 523.874 369.731, 518.721 369.466 C 514.579 369.252, 511.405 369.665, 509.222 370.700 C 504.903 372.748, 488.006 387.867, 484.100 393.178 C 479.224 399.809, 481.569 399.081, 487.960 391.980 C 491.168 388.416, 494.065 385.764, 494.399 386.086 C 494.732 386.408, 496.360 391.583, 498.016 397.586 C 499.672 403.589, 501.433 409.450, 501.929 410.610 C 502.628 412.249, 501.742 414.991, 497.968 422.867 C 491.637 436.079, 486.542 453.405, 484.400 469 C 482.612 482.022, 481.022 486.636, 480.970 478.950 C 480.954 476.503, 480.264 465.725, 479.438 455 C 478.611 444.275, 477.537 416.892, 477.051 394.148 L 476.168 352.796 480.300 347.457 L 484.431 342.117 489.465 346.868 C 492.234 349.481, 498.100 354.027, 502.500 356.971 C 506.900 359.915, 511.978 363.601, 513.785 365.162 C 515.591 366.723, 518.067 368, 519.286 368 C 522.435 368, 543.210 358.255, 551.508 352.885 C 560.543 347.039, 569.492 338.705, 577.602 328.586 C 586.682 317.255, 588.670 312.693, 590.495 299 C 591.338 292.675, 592.754 283.225, 593.643 278 L 595.259 268.500 602.946 260.500 C 614.254 248.732, 623.030 232.795, 624.562 221.246 C 625.441 214.621, 623.432 203.916, 620.500 199.596 L 618.242 196.267 620.730 187.384 C 622.719 180.286, 623.321 175.374, 623.724 162.949 C 624.325 144.437, 622.846 135.281, 617.487 124.341 C 612.989 115.158, 602.132 103.340, 595.217 100.102 C 590.778 98.022, 590.149 97.333, 589.609 93.957 C 589.275 91.866, 587.913 88.862, 586.583 87.281 C 581.604 81.364, 565.523 74.539, 551.500 72.392 C 541.496 70.860, 515.625 70.741, 504.204 72.173 M 500.500 191.343 C 487.361 195.681, 480.057 205.015, 480.032 217.500 C 480.010 228.295, 486.099 238.009, 495.748 242.574 C 506.996 247.895, 520.074 245.195, 528.563 235.799 L 532.304 231.657 534.224 234.028 C 535.940 236.148, 536.081 237.511, 535.553 246.949 C 534.604 263.927, 534.427 318.153, 535.307 322.310 C 536.282 326.919, 541.897 333.397, 547.310 336.158 C 550.861 337.970, 551.411 338.017, 552.794 336.634 C 554.177 335.251, 553.999 334.917, 551.018 333.299 C 545.348 330.221, 541.172 326.052, 539.901 322.200 C 538.936 319.280, 538.952 309.286, 539.973 274.778 C 541.177 234.090, 541.150 230.877, 539.575 228.474 C 538.645 227.054, 537.122 225.579, 536.192 225.196 C 534.821 224.632, 534.500 223.116, 534.500 217.204 C 534.500 209.081, 533.863 209.712, 543.310 208.484 C 547.092 207.993, 548.051 207.501, 547.799 206.180 C 547.538 204.812, 546.051 204.446, 539.791 204.209 C 532.176 203.920, 532.074 203.881, 529.009 200.012 C 523.113 192.567, 509.412 188.401, 500.500 191.343 M 498.500 196.871 C 480.303 205.183, 480.126 229.881, 498.197 239.101 C 505.693 242.925, 518.745 240.354, 524.688 233.882 C 533.222 224.590, 532.852 209.821, 523.872 201.301 C 517.218 194.988, 506.659 193.144, 498.500 196.871 M 402.921 275.595 C 401.970 276.741, 401.478 282.244, 401.173 295.144 C 400.798 311.039, 400.563 313.063, 399.125 312.789 C 397.894 312.555, 397.427 311.089, 397.200 306.740 C 397.011 303.114, 396.458 300.997, 395.700 300.993 C 395.040 300.989, 391.203 298.739, 387.172 295.993 C 380.320 291.324, 379.444 291.001, 373.672 291.015 C 364.003 291.039, 364.080 292.111, 374.092 296.826 C 384.714 301.828, 394.546 310.825, 402.694 323 C 411.030 335.457, 412.322 338.587, 411.683 344.779 L 411.127 350.169 415.695 352.189 C 421.091 354.576, 433.584 357.239, 447.500 358.969 C 457.016 360.152, 457.782 360.105, 463.332 358.004 C 466.540 356.789, 470.725 354.424, 472.633 352.749 C 480.648 345.712, 500.400 311.367, 500.400 304.469 C 500.400 300.070, 498.999 298.832, 487 292.620 C 473.064 285.405, 442.505 276.678, 425.328 275.007 C 410.487 273.564, 404.476 273.722, 402.921 275.595 M 420 347.921 C 420 348.931, 422.028 349.436, 432.500 351.030 C 436.350 351.616, 442.340 352.749, 445.812 353.548 C 452.991 355.199, 457.886 355.457, 456.450 354.107 C 455.327 353.051, 443.923 350.408, 432 348.439 C 421.931 346.776, 420 346.692, 420 347.921 M 392.958 350.750 C 391.665 354.331, 388.166 360.774, 385.614 364.272 C 381.776 369.533, 369.327 371.474, 359.035 368.418 L 353.706 366.835 351.335 369.668 C 350.030 371.225, 346.079 376.805, 342.555 382.067 C 335.583 392.477, 330.339 397.817, 324.353 400.600 C 319.221 402.986, 308.492 413.939, 307.169 418.144 C 306.588 419.990, 305.630 423.376, 305.040 425.669 C 304.103 429.308, 303.308 430.166, 298.787 432.419 C 289.474 437.060, 279.715 435.649, 272.715 428.648 C 268.197 424.130, 259.554 406.985, 257.985 399.428 C 256.833 393.878, 257.072 383.152, 258.464 378 C 259.058 375.802, 258.712 375.968, 255.604 379.377 C 253.660 381.509, 250.366 385.733, 248.285 388.763 L 244.500 394.273 244.604 406.887 C 244.683 416.560, 245.222 421.365, 246.912 427.500 C 249.803 437.991, 255.025 448.699, 259.223 452.748 L 262.590 455.995 270.836 454.961 C 282.020 453.559, 292.418 449.582, 297.073 444.927 C 301.233 440.767, 307.995 429.315, 308.010 426.404 C 308.028 422.821, 312.763 414.502, 317.133 410.377 C 319.535 408.109, 323.975 404.689, 327 402.778 C 333.309 398.793, 339.783 392.131, 345.735 383.500 C 348.011 380.200, 350.943 376.200, 352.252 374.612 C 354.541 371.835, 354.779 371.772, 358.453 372.984 C 362.686 374.381, 374.083 373.888, 380.219 372.042 C 385.189 370.547, 389.347 366.897, 391.855 361.828 C 393.866 357.764, 394.050 357.656, 399.209 357.500 C 402.119 357.412, 406.300 356.515, 408.500 355.506 C 412.392 353.722, 412.433 353.653, 410 352.936 C 408.625 352.531, 405.925 352.153, 404 352.096 C 402.075 352.039, 399.026 351.094, 397.225 349.996 L 393.951 347.999 392.958 350.750 M 635.762 504.750 C 627.075 510.994, 608.023 526.356, 608.444 526.777 C 608.625 526.959, 617.951 525.958, 629.168 524.553 C 640.386 523.149, 651.911 522, 654.782 522 C 657.652 522, 660 521.766, 660 521.480 C 660 520.994, 642.947 500, 642.552 500 C 642.452 500, 639.397 502.137, 635.762 504.750 M 426.500 668.611 C 423.200 671.115, 412.598 678.486, 402.940 684.989 C 386.848 695.824, 382.271 699.796, 379.215 705.573 C 377.821 708.209, 373 737.015, 373 742.708 C 373 745.069, 373.450 747, 374 747 C 374.550 747, 375 746.554, 375 746.010 C 375 745.465, 378.631 737.703, 383.069 728.760 C 391.722 711.322, 395.307 706.637, 405 700.101 C 413.932 694.078, 432.031 683.698, 432.603 684.270 C 433.609 685.276, 428.702 688.910, 417.180 695.691 C 399.445 706.129, 395.513 710.272, 386.556 727.953 C 378.927 743.016, 370 763.709, 370 766.333 C 370 769.391, 376.803 769.980, 379.369 767.145 C 380.339 766.073, 380.775 764.576, 380.400 763.601 C 379.216 760.514, 406.622 721.933, 415.348 714.407 C 417.632 712.437, 424.900 707.645, 431.500 703.759 C 438.100 699.873, 445.208 695.358, 447.296 693.726 C 449.384 692.094, 451.409 691.083, 451.796 691.479 C 453.011 692.722, 444.654 699.280, 434.642 704.941 C 421.471 712.387, 415.168 717.569, 407.506 727.252 C 398.701 738.379, 383 761.482, 383 763.311 C 383 765.225, 385.147 766, 390.447 766 C 396.110 766, 398.060 764.350, 409.801 749.625 C 420.490 736.220, 435.250 720.934, 441.639 716.655 C 445.919 713.787, 469.287 703, 471.218 703 C 474.007 703, 468.141 707.081, 461.202 709.967 C 450.334 714.489, 442.259 719.140, 436.546 724.168 C 430.027 729.906, 414 748.016, 414 749.645 C 414 751.353, 417.223 753, 420.566 753 C 423.737 753, 427.157 751.010, 440 741.695 C 452.239 732.817, 453.801 732.066, 470.500 727.028 C 487.926 721.770, 492.368 721.887, 509.744 728.058 C 516.210 730.354, 524.436 733.141, 528.025 734.251 L 534.550 736.270 542.025 733.031 C 549.874 729.631, 558.623 722.329, 559.628 718.340 C 559.975 716.962, 558.507 712.712, 555.573 706.599 C 549.773 694.515, 542.959 687.259, 534.993 684.687 C 528.500 682.590, 511.030 679.423, 498 677.982 C 492.775 677.404, 481.525 674.945, 473 672.518 C 459.707 668.734, 451.989 667.089, 435.500 664.523 C 433.090 664.148, 431.320 664.952, 426.500 668.611 M 524.250 674.847 C 519.712 675.715, 516.002 676.667, 516.003 676.963 C 516.005 677.258, 520.134 678.301, 525.179 679.281 C 537.308 681.636, 542.545 684.092, 548.133 690.043 C 553.173 695.412, 559.433 706.740, 563.029 717 C 566.099 725.760, 566.860 740.076, 564.619 746.927 C 563.728 749.649, 563 752.187, 563 752.566 C 563 753.895, 578.502 752.337, 581.658 750.691 C 585.531 748.671, 586.519 744.302, 585.502 733.700 C 583.872 716.721, 572.257 692.858, 561 683.364 C 555.751 678.937, 552.824 677.299, 546.137 675.046 C 539.146 672.691, 535.682 672.659, 524.250 674.847 M 369.117 725.191 C 366.033 728.346, 363 736.017, 363 740.662 C 363 742.317, 363.745 743.149, 365.656 743.628 C 369.201 744.518, 370.993 741.992, 371.024 736.059 C 371.038 733.551, 371.504 729.528, 372.059 727.118 C 372.615 724.708, 372.893 722.560, 372.677 722.344 C 372.461 722.128, 370.859 723.409, 369.117 725.191 M 708.107 1195.034 C 709.043 1196.445, 712.367 1198.280, 716.801 1199.836 C 723.818 1202.297, 725.940 1202.330, 724.472 1199.955 C 723.566 1198.489, 714.678 1194.515, 710.045 1193.505 C 706.624 1192.758, 706.605 1192.773, 708.107 1195.034 M 676 1206 C 675.312 1207.286, 675.286 1208, 675.930 1208 C 676.480 1208, 677.411 1207.100, 678 1206 C 678.688 1204.714, 678.714 1204, 678.070 1204 C 677.520 1204, 676.589 1204.900, 676 1206 M 670.510 1213.016 C 670.856 1213.575, 671.557 1213.774, 672.069 1213.457 C 673.456 1212.600, 673.198 1212, 671.441 1212 C 670.584 1212, 670.165 1212.457, 670.510 1213.016 M 673.333 1215.667 C 673.700 1216.033, 674.300 1216.033, 674.667 1215.667 C 675.033 1215.300, 674.733 1215, 674 1215 C 673.267 1215, 672.967 1215.300, 673.333 1215.667 M 691.131 1221.382 C 689.920 1224.616, 689.109 1227.443, 689.329 1227.662 C 689.992 1228.326, 694.148 1217.944, 693.725 1216.677 C 693.509 1216.030, 692.342 1218.147, 691.131 1221.382 M 680.344 1224.508 C 678.845 1227.739, 680.289 1227.733, 682.408 1224.500 C 683.608 1222.669, 683.705 1222.002, 682.773 1222.008 C 682.073 1222.012, 680.980 1223.137, 680.344 1224.508 M 689.999 1232.502 C 688.808 1234.428, 688.009 1236.527, 688.222 1237.166 C 688.435 1237.805, 689.702 1236.566, 691.039 1234.414 C 694.235 1229.264, 694.339 1229, 693.165 1229 C 692.614 1229, 691.189 1230.576, 689.999 1232.502 M 699.171 1237.294 C 698.015 1238.687, 693.867 1248, 694.403 1248 C 694.687 1248, 698.880 1242.093, 701.262 1238.336 C 702.324 1236.661, 700.464 1235.735, 699.171 1237.294 M 703.991 1248.889 C 701.956 1251.028, 700.031 1253.772, 699.713 1254.988 C 699.396 1256.203, 699.244 1257.041, 699.377 1256.849 C 699.509 1256.657, 702.019 1253.912, 704.954 1250.750 C 707.889 1247.588, 709.705 1245, 708.990 1245 C 708.275 1245, 706.026 1246.750, 703.991 1248.889 M 721.248 1260.649 C 715.509 1263.478, 709.006 1270.068, 702.741 1279.403 L 696.636 1288.500 707.170 1277.750 C 712.964 1271.838, 718.161 1267, 718.719 1267 C 719.278 1267, 720.925 1265.200, 722.381 1263 C 723.837 1260.800, 724.909 1259.010, 724.764 1259.023 C 724.619 1259.035, 723.036 1259.767, 721.248 1260.649 M 781.241 1310.468 C 774.260 1313.718, 767 1318.779, 767 1320.396 C 767 1321.228, 770.684 1319.937, 777.250 1316.803 C 790.359 1310.546, 790.309 1310.574, 790.774 1309.179 C 791.423 1307.231, 786.872 1307.846, 781.241 1310.468 M 308.708 1358.132 C 304.234 1361.956, 298.197 1370.530, 299.242 1371.576 C 299.509 1371.843, 302.286 1369.298, 305.413 1365.921 C 315.201 1355.348, 317.035 1351.014, 308.708 1358.132 M 344 1359.059 C 344 1359.641, 344.450 1359.840, 345 1359.500 C 345.550 1359.160, 346 1358.684, 346 1358.441 C 346 1358.198, 345.550 1358, 345 1358 C 344.450 1358, 344 1358.477, 344 1359.059 M 334 1361.500 C 334.685 1362.325, 335.695 1363, 336.245 1363 C 336.803 1363, 336.694 1362.337, 336 1361.500 C 335.315 1360.675, 334.305 1360, 333.755 1360 C 333.197 1360, 333.306 1360.663, 334 1361.500 M 348 1363 C 348 1363.550, 348.477 1364, 349.059 1364 C 349.641 1364, 349.840 1363.550, 349.500 1363 C 349.160 1362.450, 348.684 1362, 348.441 1362 C 348.198 1362, 348 1362.450, 348 1363 M 343.333 1365.667 C 343.700 1366.033, 344.300 1366.033, 344.667 1365.667 C 345.033 1365.300, 344.733 1365, 344 1365 C 343.267 1365, 342.967 1365.300, 343.333 1365.667 M 337.015 1369.750 C 337.046 1371.335, 343.855 1378.459, 344.618 1377.706 C 345.060 1377.269, 344.257 1375.919, 342.834 1374.706 C 341.411 1373.493, 339.980 1371.713, 339.655 1370.750 C 339.078 1369.045, 336.985 1368.253, 337.015 1369.750 M 335 1378.500 C 335 1378.775, 335.225 1379, 335.500 1379 C 335.775 1379, 336 1378.775, 336 1378.500 C 336 1378.225, 335.775 1378, 335.500 1378 C 335.225 1378, 335 1378.225, 335 1378.500 M 334.500 1382 C 335.495 1383.100, 336.760 1384, 337.310 1384 C 337.860 1384, 337.495 1383.100, 336.500 1382 C 335.505 1380.900, 334.240 1380, 333.690 1380 C 333.140 1380, 333.505 1380.900, 334.500 1382 M 332.996 1385.496 C 334.286 1386.869, 335.562 1387.772, 335.831 1387.502 C 336.495 1386.838, 332.948 1383, 331.671 1383 C 331.110 1383, 331.707 1384.123, 332.996 1385.496 M 322.413 1389.264 C 323.466 1389.944, 327.178 1392.410, 330.663 1394.743 C 337.273 1399.170, 338.968 1399.204, 334.250 1394.817 C 330.494 1391.324, 327.067 1389.352, 323.500 1388.633 C 320.847 1388.099, 320.721 1388.172, 322.413 1389.264 M 297.500 1409.670 C 295.300 1409.925, 293.058 1410.568, 292.518 1411.099 C 291.887 1411.719, 295.458 1411.834, 302.518 1411.420 C 311.859 1410.872, 314.883 1411.104, 322.757 1412.973 C 327.848 1414.181, 331.774 1415.556, 331.482 1416.029 C 330.876 1417.009, 339.801 1422.532, 340.638 1421.695 C 340.939 1421.394, 339.821 1420.442, 338.154 1419.579 C 336.486 1418.717, 334.510 1417.138, 333.762 1416.070 C 331.209 1412.426, 322.376 1409.819, 311.500 1409.499 C 306 1409.338, 299.700 1409.415, 297.500 1409.670 M 272.496 1459.007 C 271.681 1460.325, 272.039 1460.406, 289 1462.713 C 303.334 1464.663, 305.778 1464.717, 303.035 1463.022 C 297.559 1459.637, 274.019 1456.543, 272.496 1459.007" stroke="none" fill="#000000" fill-rule="evenodd"/>
</svg>