<svg xmlns="http://www.w3.org/2000/svg" width="1024" height="1536" viewBox="0 0 1024 1536" version="1.1">
	<rect x="0" y="0" width="100%" height="100%" fill="#FFFFFF" />
	<path d="M 488 75.421 C 472.597 77.213, 470.328 77.936, 457.248 85.228 C 447.415 90.709, 444.914 92.680, 437.418 100.854 C 432.612 106.095, 427.962 112.252, 426.845 114.854 C 425.747 117.410, 424.227 124.508, 423.466 130.629 C 422.705 136.751, 421.617 144.626, 421.049 148.129 C 419.771 156.006, 419.776 165.067, 421.063 171 C 421.599 173.475, 422.456 178.425, 422.967 182 C 423.478 185.575, 424.567 190.390, 425.386 192.700 L 426.876 196.900 421.789 197.200 C 417.573 197.449, 416.348 197.976, 414.632 200.282 C 408.853 208.048, 413.160 231.256, 423.142 246.140 C 427.421 252.520, 434.476 259, 437.141 259 C 438.401 259, 439.239 260.245, 440.003 263.250 C 440.598 265.587, 442.149 271.325, 443.451 276 C 446.586 287.257, 449.658 300.386, 450.518 306.205 C 451.207 310.862, 451.151 310.985, 445.018 318.399 C 441.137 323.091, 434.654 329.036, 427.662 334.316 C 418.529 341.212, 413.889 343.870, 402.136 348.936 C 379.863 358.536, 309.744 381.433, 296.202 383.527 C 288.018 384.793, 280.304 392.914, 272.482 408.500 C 269.769 413.904, 268.733 417.552, 267.937 424.500 C 266.988 432.780, 262.185 448.681, 258.348 456.242 C 255.923 461.022, 253.790 475.907, 254.482 483.230 L 255.117 489.960 250.454 494.946 C 247.889 497.688, 245.001 500.182, 244.038 500.488 C 242.568 500.954, 242.197 502.698, 241.738 511.272 C 241.252 520.376, 240.729 522.599, 236.984 531.500 C 223.339 563.923, 222.097 567.477, 218.989 583 C 214.707 604.380, 211.007 615.803, 202.926 632.584 C 194.176 650.755, 193.019 657.581, 194.756 680.784 C 196.021 697.677, 196.983 700.458, 205.476 711.756 C 209.456 717.051, 211.306 718.531, 217.829 721.635 C 222.048 723.644, 232.475 727.504, 241 730.213 C 249.525 732.923, 262.125 737.172, 269 739.655 C 297.226 749.853, 301.349 751.181, 306.412 751.703 L 311.704 752.249 308.510 757.553 C 306.754 760.470, 302.780 768.851, 299.679 776.178 C 294.846 787.600, 293.540 792.138, 290.523 808 C 288.587 818.175, 285.637 835.725, 283.968 847 C 282.298 858.275, 278.687 878.492, 275.943 891.926 C 271.035 915.953, 269.046 932.307, 270.737 934.732 C 271.209 935.410, 275.174 938.030, 279.548 940.554 C 287.172 944.954, 287.745 945.120, 293.445 944.567 C 302.789 943.660, 307.365 940.867, 313.860 932.108 C 316.963 927.923, 319.815 924.275, 320.198 924 C 320.582 923.725, 322.314 925.640, 324.046 928.256 C 330.796 938.446, 344.704 947.219, 357.832 949.566 C 362.049 950.320, 372.547 951.245, 381.159 951.621 C 399.973 952.443, 399.529 952.082, 397.880 965.211 C 397.307 969.770, 396.472 990.150, 396.025 1010.500 C 395.325 1042.394, 394.785 1051.019, 392.114 1073 C 390.410 1087.025, 387.865 1108.400, 386.459 1120.500 C 381.251 1165.332, 372.710 1217.655, 365.973 1245.994 C 361.682 1264.042, 361.180 1269.074, 363.479 1270.982 C 364.292 1271.657, 366.928 1275.201, 369.337 1278.858 C 371.746 1282.514, 376.706 1288.302, 380.359 1291.719 C 384.011 1295.136, 387 1298.640, 387 1299.505 C 387 1300.370, 384.995 1306.439, 382.544 1312.991 C 376.478 1329.206, 375.052 1335.104, 375.694 1341.320 C 376.076 1345.030, 375.625 1348.475, 374.115 1353.363 C 372.952 1357.129, 372 1361.651, 372 1363.411 C 372 1365.220, 370.955 1368.027, 369.598 1369.867 C 367.327 1372.945, 365.593 1377.835, 359.567 1398.143 C 357.206 1406.100, 345.103 1431.621, 338.057 1443.500 C 335.713 1447.452, 334.748 1450.909, 333.454 1460 C 332.479 1466.848, 330.842 1473.673, 329.408 1476.871 C 328.084 1479.825, 327 1482.862, 327 1483.621 C 327 1485.806, 334.474 1492.700, 339.733 1495.364 C 346.794 1498.943, 351.219 1499.891, 368.642 1501.561 C 381.303 1502.774, 387.462 1502.863, 400.201 1502.017 C 420.549 1500.666, 427.345 1499.176, 441.925 1492.869 C 455.121 1487.160, 461.721 1482.658, 466.334 1476.220 L 469.400 1471.941 468.021 1466.220 C 467.245 1463.005, 466.551 1454.145, 466.437 1445.992 C 466.197 1428.986, 464.758 1416.348, 461.482 1402.500 C 459.814 1395.449, 459.066 1389.108, 458.946 1381 C 458.795 1370.730, 459.068 1368.698, 461.504 1362 C 464.223 1354.522, 464.227 1354.467, 462.958 1343.500 C 462.257 1337.450, 461.493 1329.463, 461.260 1325.750 L 460.836 1319 467.227 1319 C 470.770 1319, 474.372 1318.443, 475.310 1317.750 C 476.508 1316.865, 477.725 1312.373, 479.473 1302.385 C 483.124 1281.523, 492.297 1240.632, 514.108 1148 C 517.411 1133.975, 521.400 1117.325, 522.975 1111 C 529.317 1085.517, 535.797 1039.050, 536.678 1012.737 C 537.024 1002.417, 537.514 994.180, 537.767 994.434 C 538.020 994.687, 539.236 997.730, 540.469 1001.197 C 541.702 1004.664, 545.542 1012.675, 549.003 1019 C 552.464 1025.325, 560.333 1040.175, 566.491 1052 C 572.649 1063.825, 579.753 1077.325, 582.279 1082 C 586.671 1090.132, 586.826 1090.695, 585.850 1095 L 584.831 1099.500 596.165 1117.721 C 604.720 1131.472, 607.991 1135.943, 609.500 1135.948 C 610.600 1135.951, 616.757 1134.689, 623.182 1133.141 L 634.864 1130.328 645.932 1146.123 C 652.111 1154.942, 657.007 1162.931, 657.016 1164.210 C 657.026 1165.469, 658.342 1172.415, 659.942 1179.645 C 662.335 1190.460, 663.597 1194.005, 667.061 1199.645 C 669.377 1203.415, 672.060 1207.850, 673.023 1209.500 C 674.115 1211.372, 675.392 1217.574, 676.419 1226 C 679.217 1248.962, 679.778 1251.198, 685.072 1260.429 C 687.756 1265.111, 691.320 1272.487, 692.991 1276.821 C 695.585 1283.546, 697.017 1285.646, 702.765 1291.148 C 713.793 1301.704, 717.845 1303.886, 719.831 1300.337 C 720.595 1298.973, 721.127 1299.498, 722.789 1303.257 C 725.271 1308.867, 732.183 1319.328, 736.388 1323.838 C 740.548 1328.299, 745.257 1330.593, 755.744 1333.267 C 763.690 1335.294, 766.766 1335.492, 789 1335.416 C 810.602 1335.343, 814.401 1335.085, 821.121 1333.240 C 834.913 1329.453, 854.016 1318.801, 867.813 1307.204 C 873.909 1302.079, 875.512 1299.827, 876.366 1295.185 C 876.925 1292.146, 876.396 1291.231, 870.010 1284.185 C 858.920 1271.949, 854.617 1266.898, 849.986 1260.678 C 845.238 1254.302, 842.828 1252.455, 826.500 1242.681 C 816.702 1236.817, 813.543 1234.125, 797.589 1218.043 C 787.738 1208.113, 779.906 1199.761, 780.185 1199.481 C 780.464 1199.202, 782.323 1199.655, 784.314 1200.487 C 792.889 1204.070, 791.688 1202.490, 771.505 1183.638 C 753.402 1166.729, 746.581 1158.860, 742.347 1150 C 740.097 1145.290, 735.342 1138.408, 729.566 1131.500 C 713.792 1112.637, 709.402 1106.846, 702.240 1095.455 L 695.295 1084.410 702.662 1069.455 C 714.059 1046.316, 714.181 1050.335, 701.426 1028.813 C 685.526 1001.985, 654 940.062, 654 935.660 C 654 934.938, 660.254 933.254, 670.181 931.302 L 686.362 928.120 692.409 933.718 C 705.626 945.955, 717.888 951.027, 726.771 947.930 C 730.985 946.461, 731.316 944.868, 729.012 937.162 C 726.584 929.047, 724.968 918.301, 721.002 883.924 C 719.326 869.391, 716.758 848.950, 715.297 838.500 C 713.519 825.786, 712.617 814.868, 712.570 805.500 L 712.500 791.500 705.909 778.500 C 702.284 771.350, 697.897 763.274, 696.159 760.554 C 694.422 757.834, 693 755.329, 693 754.987 C 693 754.645, 696.326 753.582, 700.390 752.623 C 710.668 750.201, 783.544 726.532, 786.271 724.731 C 787.497 723.921, 790.740 719.488, 793.477 714.880 C 797.451 708.189, 799.299 703.420, 802.647 691.219 C 807.237 674.489, 807.216 675.230, 803.633 655.695 C 802.806 651.188, 801.624 642.775, 801.006 637 C 800.388 631.225, 799.017 622.675, 797.959 618 C 796.901 613.325, 795.560 606.406, 794.979 602.624 C 792.993 589.713, 790.115 576.509, 786.669 564.500 C 784.775 557.900, 782.244 546.875, 781.045 540 C 779.846 533.125, 777.770 523.143, 776.432 517.819 C 774.803 511.332, 774 505.323, 774 499.608 C 774 491.190, 773.927 490.938, 768.375 480.304 L 762.749 469.529 763.533 462.515 C 764.776 451.374, 764.396 448.263, 760.174 435 C 754.235 416.345, 751.798 410.380, 745.004 397.874 C 737.950 384.892, 734.158 380.406, 729.648 379.708 C 727.917 379.440, 724.025 378.296, 721 377.165 C 717.975 376.034, 707.175 372.796, 697 369.969 C 676.705 364.332, 633.202 350.055, 612 342.075 C 598.526 337.003, 598.486 336.978, 591.113 329.247 C 587.050 324.986, 580.615 318.250, 576.812 314.278 L 569.898 307.057 571.903 304.278 C 574.307 300.945, 579 282.847, 579 276.905 C 579 274.577, 579.762 268.696, 580.694 263.836 L 582.388 255 586.260 255 C 588.389 255, 590.952 254.561, 591.954 254.024 C 594.347 252.744, 600.795 243.717, 603.198 238.285 C 607.607 228.317, 609.564 205.925, 606.537 200.072 C 603.897 194.967, 598.328 194.518, 593.801 199.045 C 589.972 202.874, 589.269 202.379, 592.438 198.085 C 594.714 194.999, 594.847 194.060, 594.771 181.656 C 594.718 173.133, 595.272 165.556, 596.345 160.140 C 598.378 149.872, 598.474 137.234, 596.574 129.960 C 593.801 119.343, 588.553 112.478, 578.182 105.900 C 574.410 103.509, 573.108 103.200, 568.898 103.699 C 564.145 104.261, 564 104.202, 564 101.686 C 564 100.261, 564.507 97.981, 565.127 96.621 C 566.064 94.565, 565.887 93.552, 564.077 90.624 C 561.277 86.094, 557.124 83.628, 548.875 81.599 C 545.231 80.703, 538.486 78.843, 533.885 77.466 C 523.306 74.299, 504.751 73.472, 488 75.421 M 538.271 184.095 C 530.198 188.091, 524.062 197.616, 524.022 206.212 C 523.977 215.770, 530.086 226.213, 537.315 228.939 C 541.442 230.494, 548.878 230.235, 555.068 228.319 C 558.056 227.395, 560.833 226.718, 561.240 226.816 C 561.646 226.913, 563.191 225.082, 564.671 222.747 C 573.256 209.205, 573.075 197.648, 564.143 188.981 C 556.847 181.901, 546.609 179.968, 538.271 184.095 M 531.244 184.998 C 527.046 187.551, 523.025 193.794, 522.477 198.610 C 522.055 202.319, 522.074 202.350, 522.886 199.275 C 524.176 194.388, 528.128 189.125, 533.150 185.608 C 536.474 183.279, 534.899 182.775, 531.244 184.998 M 539.500 189.573 C 528.682 195.199, 524.892 208.194, 531.262 217.819 C 534.624 222.900, 539.989 225.501, 547.033 225.465 C 557.106 225.414, 564.977 218.317, 565.787 208.556 C 566.036 205.551, 565.954 201.955, 565.606 200.565 C 564.799 197.350, 559.546 191.334, 555.901 189.449 C 552.214 187.542, 543.274 187.610, 539.500 189.573 M 569.761 215.588 C 569.150 216.588, 570.065 293.268, 570.681 292.653 C 571.608 291.726, 573.042 279.277, 574.032 263.560 C 575.393 241.955, 574.437 219.761, 572.016 216.771 C 571.082 215.618, 570.068 215.086, 569.761 215.588 M 567.680 317.250 C 567.306 318.762, 566.750 321.192, 566.444 322.649 C 565.746 325.969, 555.428 336.329, 547.500 341.670 C 544.200 343.893, 535.935 348.908, 529.133 352.813 C 515.386 360.705, 510.371 362.098, 503.653 359.892 C 497.020 357.713, 460.101 332.184, 454 325.557 C 452.625 324.063, 450.950 321.189, 450.279 319.171 L 449.058 315.500 449.515 319 C 449.766 320.925, 450.431 329.025, 450.992 337 C 451.553 344.975, 453.345 358.475, 454.974 367 C 456.603 375.525, 458.422 386.325, 459.016 391 C 461.204 408.207, 472.424 465.048, 477.545 484.873 C 479.445 492.228, 481 499.165, 481 500.289 C 481 501.414, 481.178 502.146, 481.396 501.917 C 481.613 501.688, 482.309 494.975, 482.941 487 C 485.788 451.105, 489.563 425.294, 494.150 410.364 L 497.263 400.228 493.611 394.364 C 491.603 391.139, 489.088 387.375, 488.022 386 L 486.085 383.500 478.042 391.477 C 473.428 396.053, 470 398.781, 470 397.877 C 470 393.188, 492.312 368.396, 500.070 364.465 C 509.336 359.769, 516.691 361.608, 526.041 370.959 C 538.091 383.010, 551.083 400, 548.247 400 C 547.810 400, 543.874 396.400, 539.500 392 C 535.126 387.600, 531.271 384, 530.934 384 C 530.597 384, 527.756 387.563, 524.621 391.918 L 518.920 399.836 520.434 409.168 C 521.267 414.301, 523.992 428.625, 526.490 441 C 532.296 469.764, 534.726 484.245, 535.635 495.500 L 536.362 504.500 537.702 500 C 538.439 497.525, 541.097 486.050, 543.609 474.500 C 556.075 417.178, 561.997 389.464, 564.017 379 C 565.238 372.675, 567.102 363, 568.158 357.500 C 570.304 346.326, 570.727 333.259, 569.306 322 C 568.566 316.140, 568.211 315.101, 567.680 317.250 M 642.586 482.742 C 637.784 483.114, 637.426 483.379, 626.960 494.312 L 616.248 505.500 627.374 505.798 C 637.886 506.079, 647.643 505.247, 661.628 502.876 L 667.756 501.837 664.452 496.169 C 655.570 480.933, 656.519 481.981, 651.788 482.180 C 649.430 482.279, 645.289 482.532, 642.586 482.742 M 327.369 599.420 C 328.003 612.043, 327.900 613.217, 325.644 619.170 C 324.325 622.652, 322.065 627.705, 320.623 630.399 C 319.180 633.093, 318 635.888, 318 636.610 C 318 637.876, 324.486 640.250, 331.579 641.581 L 335 642.223 335 635.166 C 335 620.798, 332.971 602.603, 330.438 594.250 C 329.061 589.712, 327.656 586, 327.316 586 C 326.975 586, 326.999 592.039, 327.369 599.420 M 686.235 621.250 C 683.946 629.087, 681.786 637.164, 681.435 639.197 L 680.797 642.895 684.649 641.834 C 690.104 640.332, 697.992 636.183, 698.650 634.471 C 699.605 631.980, 692.709 607, 691.065 607 C 690.697 607, 688.523 613.413, 686.235 621.250 M 465 626.838 C 456.186 631.197, 458.540 629.723, 425 651.870 C 391.212 674.181, 381.748 681.541, 380.229 686.687 C 375.889 701.391, 379.482 713.874, 388.545 715.574 C 393.773 716.555, 399.401 712.773, 412.453 699.508 C 426.167 685.569, 424.887 686.220, 449.798 680.509 C 465.195 676.979, 469.584 675.411, 471.909 672.610 C 474.205 669.844, 473.676 669.583, 458.713 666.102 C 456.081 665.489, 452.238 665.258, 450.175 665.588 C 447.393 666.033, 445.333 665.620, 442.211 663.993 C 436.935 661.243, 436.731 659.797, 441.869 661.567 C 443.997 662.300, 451.114 663.601, 457.686 664.459 C 464.258 665.317, 472.080 666.680, 475.068 667.490 C 489.036 671.273, 496.075 672.910, 503 673.985 C 516.232 676.040, 523.413 678.081, 527 680.804 C 528.925 682.266, 535.900 688.657, 542.500 695.007 C 549.791 702.022, 556.360 707.425, 559.239 708.776 C 564.460 711.226, 567.538 711.679, 566.395 709.830 C 565.920 709.062, 566.202 708.863, 567.214 709.252 C 571.290 710.816, 572.389 702.805, 568.805 697.654 C 567.598 695.919, 565.123 692.732, 563.305 690.570 C 561.487 688.409, 560 685.807, 560 684.788 C 560 680.762, 556.603 675.180, 550.090 668.500 C 546.335 664.650, 541.392 658.915, 539.104 655.755 C 534.235 649.031, 532.969 648.120, 523 644.171 C 513.860 640.551, 483.259 626.292, 480.527 624.380 C 477.378 622.176, 473.038 622.863, 465 626.838 M 479.500 638.469 C 481.150 639.821, 482.993 640.944, 483.597 640.964 C 484.508 640.994, 507.290 651.552, 519.932 657.803 C 523.108 659.373, 539.375 673.888, 548.349 683.159 C 550.466 685.346, 552.478 686.856, 552.819 686.514 C 553.161 686.172, 546.929 679.651, 538.970 672.022 L 524.500 658.151 505 648.464 C 494.275 643.137, 484.306 638.153, 482.846 637.389 C 481.386 636.625, 479.361 636.002, 478.346 636.005 C 476.863 636.009, 477.089 636.493, 479.500 638.469 M 454.526 643.959 C 454.112 644.627, 454.268 645.668, 454.870 646.270 C 456.407 647.807, 457.380 646.501, 456.230 644.447 C 455.530 643.196, 455.077 643.067, 454.526 643.959 M 460.214 649.143 C 460.464 649.892, 462.880 650.815, 465.623 651.210 C 468.350 651.602, 476.574 654.191, 483.899 656.962 C 491.223 659.733, 497.694 662, 498.278 662 C 498.863 662, 502.433 663.425, 506.213 665.168 C 510.758 667.263, 512.912 668.787, 512.574 669.668 C 512.002 671.157, 513.566 671.511, 514.444 670.090 C 515.701 668.057, 513.505 666.083, 506.149 662.631 C 501.893 660.634, 497.884 659, 497.240 659 C 496.596 659, 489.416 656.795, 481.285 654.099 C 463.281 648.132, 459.588 647.263, 460.214 649.143 M 389.698 657.397 C 387.607 658.169, 384.073 660.064, 381.844 661.608 C 374.159 666.934, 364.232 684.631, 361.411 698.035 C 359.357 707.793, 359.012 728.104, 360.862 730.333 C 362.758 732.618, 367.967 733.355, 372.876 732.033 L 377.070 730.904 375.096 728.395 C 371.294 723.561, 369.698 716.502, 370.452 707.853 C 371.989 690.241, 382.323 672.220, 396.476 662.472 C 399.563 660.346, 401.659 658.259, 401.184 657.784 C 399.591 656.191, 393.522 655.987, 389.698 657.397 M 576.029 658.961 C 575.220 659.473, 574.770 660.028, 575.029 660.196 C 575.288 660.363, 577.750 661.666, 580.500 663.091 C 586.005 665.944, 593.599 674.459, 597.611 682.278 C 598.959 684.906, 601.623 692.480, 603.531 699.108 C 608.758 717.268, 608.062 725.871, 600.655 734.644 C 599.195 736.374, 598 738.123, 598 738.532 C 598 739.416, 607.559 738.392, 613.672 736.852 C 618.794 735.563, 618.719 736.055, 616.476 718.458 C 614.703 704.546, 610.904 688.725, 607.892 682.710 C 605.530 677.993, 599.001 669.790, 594.593 666 C 586.238 658.818, 579.997 656.452, 576.029 658.961 M 570.500 669.583 C 569.400 669.753, 565.484 670.176, 561.798 670.521 L 555.095 671.149 558.048 675.225 C 559.671 677.466, 561 680.537, 561 682.048 C 561 683.859, 562.872 687.188, 566.494 691.817 C 572.647 699.681, 574.351 703.270, 573.411 706.382 C 572.578 709.137, 569.021 713, 567.317 713 C 564.873 713, 568.127 716.753, 572.139 718.563 C 575.025 719.864, 577.192 720.082, 581.685 719.520 C 589.212 718.580, 592.408 716.851, 595.634 711.977 C 598.075 708.288, 598.212 707.501, 597.577 700.755 C 596.409 688.340, 594.282 682.470, 588.766 676.434 C 582.847 669.958, 578.527 668.337, 570.500 669.583 M 735 1197.500 C 734.306 1198.337, 734.197 1199, 734.755 1199 C 735.305 1199, 736.315 1198.325, 737 1197.500 C 737.694 1196.663, 737.803 1196, 737.245 1196 C 736.695 1196, 735.685 1196.675, 735 1197.500 M 748.872 1206.750 C 747.629 1208.336, 747.664 1208.371, 749.250 1207.128 C 750.916 1205.821, 751.445 1205, 750.622 1205 C 750.415 1205, 749.627 1205.787, 748.872 1206.750 M 744.693 1211.787 C 742.892 1213.777, 739.658 1220.991, 740.285 1221.618 C 740.506 1221.840, 742.293 1219.316, 744.255 1216.010 C 747.736 1210.145, 747.938 1208.201, 744.693 1211.787 M 763.253 1222.932 C 761.027 1224.544, 758.094 1227.357, 756.735 1229.182 C 750.407 1237.681, 751.336 1237.778, 759.792 1229.500 C 764.849 1224.550, 768.989 1220.388, 768.993 1220.250 C 769.018 1219.344, 766.731 1220.412, 763.253 1222.932 M 776.500 1249.595 C 770.564 1252.616, 763.157 1259.596, 760.081 1265.070 C 757.087 1270.397, 758.082 1270.018, 762.349 1264.206 C 765.743 1259.582, 772.126 1254.386, 780.500 1249.430 C 785.852 1246.262, 782.803 1246.389, 776.500 1249.595 M 837.081 1296.513 C 829.718 1301.556, 827.363 1303.696, 828.226 1304.560 C 829.939 1306.272, 842.792 1298.126, 845.058 1293.892 C 846.700 1290.824, 844.176 1291.653, 837.081 1296.513 M 409 1360.500 C 409 1360.775, 409.225 1361, 409.500 1361 C 409.775 1361, 410 1360.775, 410 1360.500 C 410 1360.225, 409.775 1360, 409.500 1360 C 409.225 1360, 409 1360.225, 409 1360.500 M 415.080 1362 C 416.538 1365.061, 417 1365.628, 417 1364.358 C 417 1363.821, 416.300 1362.509, 415.445 1361.441 C 413.978 1359.611, 413.958 1359.643, 415.080 1362 M 399.250 1361.706 C 398.012 1361.944, 397 1362.614, 397 1363.195 C 397 1364.441, 402.929 1363.471, 404.419 1361.981 C 405.437 1360.963, 403.611 1360.866, 399.250 1361.706 M 417 1367 C 417 1367.733, 417.300 1368.033, 417.667 1367.667 C 418.033 1367.300, 418.033 1366.700, 417.667 1366.333 C 417.300 1365.967, 417 1366.267, 417 1367 M 406.473 1377.044 C 406.148 1377.570, 406.809 1378, 407.941 1378 C 410.356 1378, 410.599 1377.444, 408.532 1376.651 C 407.725 1376.341, 406.798 1376.518, 406.473 1377.044 M 398.441 1378.468 C 396.582 1379.874, 396.616 1379.938, 399.250 1379.968 C 401.042 1379.989, 402 1379.477, 402 1378.500 C 402 1376.607, 400.915 1376.597, 398.441 1378.468 M 412 1389.500 C 412 1389.775, 412.225 1390, 412.500 1390 C 412.775 1390, 413 1389.775, 413 1389.500 C 413 1389.225, 412.775 1389, 412.500 1389 C 412.225 1389, 412 1389.225, 412 1389.500 M 392 1397 C 390.137 1397.597, 391.076 1397.826, 395.691 1397.900 C 399.096 1397.955, 402.160 1397.550, 402.500 1397 C 403.235 1395.811, 395.713 1395.811, 392 1397 M 383.193 1412.796 C 381.919 1413.185, 385.501 1413.554, 391.193 1413.621 C 398.587 1413.708, 403.125 1414.300, 407.250 1415.716 C 413.771 1417.954, 414.864 1417.295, 409.250 1414.510 C 405.272 1412.536, 387.810 1411.388, 383.193 1412.796 M 380.734 1428.417 C 374.462 1430.104, 373.377 1431.305, 379.038 1430.296 C 384.566 1429.310, 403.933 1429.347, 410 1430.355 C 412.981 1430.850, 414.162 1430.767, 413.500 1430.109 C 410.650 1427.279, 389.102 1426.166, 380.734 1428.417 M 368.542 1471.834 C 365.813 1473.002, 374.750 1474.005, 387 1473.905 C 394.361 1473.845, 395.825 1473.622, 393.500 1472.911 C 389.276 1471.619, 370.897 1470.826, 368.542 1471.834 M 370.500 1476.046 C 373.250 1476.474, 380.900 1476.791, 387.500 1476.751 C 398.830 1476.681, 399.081 1476.637, 392 1475.969 C 387.875 1475.580, 380.225 1475.263, 375 1475.264 C 366.846 1475.267, 366.208 1475.378, 370.500 1476.046" stroke="none" fill="#000000" fill-rule="evenodd"/>
</svg>