<svg xmlns="http://www.w3.org/2000/svg" width="1024" height="1536" viewBox="0 0 1024 1536" version="1.1">
	<rect x="0" y="0" width="100%" height="100%" fill="#FFFFFF" />
	<path d="M 481.224 54.017 C 470.595 56.801, 461.510 61.503, 454.435 67.880 C 451.006 70.971, 446.211 75.148, 443.780 77.163 C 438.536 81.509, 433.789 90.505, 431.432 100.565 C 430.077 106.348, 429.924 110.698, 430.513 126.750 C 430.901 137.338, 431.619 146, 432.109 146 C 432.599 146, 433 144.875, 433 143.500 C 433 142.125, 433.401 141, 433.891 141 C 434.958 141, 435.782 147.125, 435.225 150.919 C 434.882 153.257, 434.440 153.571, 432.003 153.214 C 429.804 152.891, 428.798 153.378, 427.466 155.411 C 426.016 157.624, 425.828 159.820, 426.238 169.762 C 427.179 192.585, 435.439 207.983, 446.750 207.996 C 448.538 207.998, 450 208.391, 450 208.869 C 450 212.757, 453.498 228.251, 455.407 232.822 C 457.118 236.918, 457.972 241.426, 458.473 249 C 459.322 261.836, 460.794 265.265, 469.220 274.040 C 474.072 279.093, 477.674 281.673, 485.065 285.390 C 490.325 288.036, 496.625 290.576, 499.065 291.034 C 503.129 291.798, 504.044 291.551, 510 288.085 C 513.575 286.005, 519.351 282.656, 522.835 280.643 C 537.239 272.323, 551.357 259.451, 554.157 252.086 C 555.294 249.097, 556.549 234, 555.662 234 C 555.312 234, 554.334 235.659, 553.486 237.687 C 552.052 241.119, 551.831 241.260, 550.290 239.718 C 548.748 238.177, 548.750 237.934, 550.309 236.211 C 551.793 234.571, 552.013 230.582, 552.242 201.180 C 552.384 182.930, 552.275 168.004, 552 168.010 C 551.725 168.016, 550.777 169.744, 549.892 171.851 C 546.354 180.281, 535.921 184.151, 526.465 180.540 C 518.560 177.521, 513.767 168.292, 515.931 160.256 C 518.013 152.526, 526.026 146.044, 533.500 146.044 C 540.487 146.044, 549.421 152.854, 550.678 159.140 C 551.426 162.879, 553 162.825, 553 159.059 C 553 157.441, 553.450 155.840, 554 155.500 C 554.659 155.092, 555.028 167.927, 555.082 193.191 C 555.172 235.829, 555.246 236.100, 560.839 214.330 C 563.312 204.702, 563.606 204.129, 566.359 203.578 C 572.975 202.255, 582.109 187.068, 585.953 171 C 590.301 152.822, 587.963 145.682, 578.891 149.439 C 577.464 150.030, 577.390 149.505, 578.239 144.803 C 579.614 137.188, 579.414 107.909, 577.945 101.699 C 577.268 98.839, 575.633 94.025, 574.310 91 C 571.542 84.669, 563.560 76, 560.499 76 C 557.111 76, 550.855 72.291, 548.946 69.151 C 546.506 65.139, 530.261 56.496, 520.436 53.984 C 509.963 51.305, 491.513 51.321, 481.224 54.017 M 527.071 151.752 C 521.915 154.381, 519.500 158.287, 519.500 164 C 519.500 175.152, 531.431 182.040, 541.009 176.417 C 542.805 175.362, 545.112 172.932, 546.137 171.016 C 552.690 158.759, 539.489 145.420, 527.071 151.752 M 559.827 260.248 C 560.224 268.111, 557.010 283.439, 548.926 312.233 C 544.563 327.773, 517.189 410.995, 516.008 412.310 C 515.608 412.755, 515.026 403.305, 514.715 391.310 C 514.063 366.153, 512.476 355.177, 507.507 341.449 C 505.578 336.121, 504 330.726, 504 329.459 C 504 328.017, 506.497 324.423, 510.691 319.829 C 514.370 315.798, 517.692 312.368, 518.072 312.206 C 518.451 312.045, 521.403 313.468, 524.631 315.370 C 527.859 317.272, 530.629 318.700, 530.787 318.543 C 531.269 318.066, 517.787 305.369, 511.092 299.996 C 506.297 296.147, 504.279 295.094, 502.675 295.603 C 501.515 295.971, 498.751 296.266, 496.533 296.258 C 491.204 296.239, 488.221 297.885, 484.046 303.147 C 482.147 305.541, 477.759 310.135, 474.296 313.355 C 470.833 316.576, 468 319.938, 468 320.828 C 468 322.087, 468.331 321.972, 469.495 320.310 C 470.318 319.136, 472.783 316.756, 474.975 315.020 L 478.959 311.864 483.980 316.884 C 488.311 321.216, 489 322.447, 489 325.852 C 489 328.023, 487.430 333.864, 485.511 338.832 C 477.528 359.504, 473.431 377.011, 469.481 407.342 C 469.134 410.005, 468.685 412.018, 468.484 411.817 C 468.282 411.616, 467.420 406.062, 466.568 399.475 C 465.716 392.889, 464.367 382.479, 463.570 376.341 C 461.137 357.610, 460.121 343.117, 458.427 303 C 457.533 281.825, 456.664 264.356, 456.497 264.180 C 456.330 264.004, 454.768 265.931, 453.026 268.462 C 446.659 277.716, 435.662 284.511, 408 296.283 C 391.540 303.288, 358.861 315.501, 345.500 319.641 C 339.986 321.349, 339.167 321.996, 335.398 327.619 C 333.142 330.984, 329.825 337.272, 328.027 341.591 C 322.393 355.124, 313.224 393.689, 307.126 429.500 C 303.335 451.767, 294.668 512.477, 292.493 532 C 291.605 539.975, 290.034 550.550, 289.003 555.500 C 286.188 569.006, 285.956 570.862, 284.955 587.831 C 284.446 596.449, 283.557 609.800, 282.979 617.500 C 282.401 625.200, 281.906 640.275, 281.878 651 C 281.831 669.485, 283.417 722.824, 284.495 739 C 286.979 776.294, 287.956 783.232, 291.478 788.606 C 292.874 790.738, 292.549 791.600, 285.982 803.174 C 275.764 821.181, 275.696 823.200, 284.697 840.934 C 291.636 854.605, 296.662 860.553, 300.470 859.597 C 302.723 859.031, 303.344 859.516, 305.761 863.728 C 307.268 866.353, 311.563 871.590, 315.307 875.367 L 322.114 882.233 319.500 909.867 C 318.062 925.065, 315.805 947.850, 314.485 960.500 C 313.165 973.150, 310.707 998.125, 309.023 1016 C 307.340 1033.875, 304.406 1062.900, 302.505 1080.500 C 300.604 1098.100, 298.122 1122.175, 296.990 1134 C 295.858 1145.825, 293.601 1169, 291.975 1185.500 C 290.350 1202, 287.427 1232.375, 285.480 1253 C 281.938 1290.517, 270.685 1405.151, 267.122 1440 C 264.966 1461.091, 265.295 1463.285, 270.695 1463.809 C 274.853 1464.212, 276.456 1461.701, 277.915 1452.500 C 279 1445.653, 295.484 1303.465, 302.434 1241 C 306.069 1208.331, 316.240 1118.788, 324.982 1042.500 C 327.755 1018.300, 331.361 988.150, 332.997 975.500 C 334.632 962.850, 337.114 939.900, 338.514 924.500 C 340.886 898.388, 341.957 888.325, 343.578 876.902 C 344.196 872.544, 344.509 872.167, 349.564 869.688 C 354.277 867.376, 355.032 866.573, 356.051 862.786 C 358.409 854.018, 364.308 834.454, 364.984 833.157 C 365.369 832.418, 365.966 836.693, 366.312 842.657 C 366.657 848.621, 368.054 861.600, 369.415 871.500 C 370.777 881.400, 373.962 907.500, 376.492 929.500 C 379.023 951.500, 381.950 975.575, 382.997 983 C 384.043 990.425, 385.595 1004.375, 386.444 1014 C 387.294 1023.625, 388.223 1033.075, 388.509 1035 C 388.796 1036.925, 390.358 1053.180, 391.980 1071.122 C 393.603 1089.064, 395.820 1109.545, 396.907 1116.637 C 400.317 1138.884, 402.999 1176.301, 405.535 1237 C 405.868 1244.975, 407.009 1264.091, 408.070 1279.480 C 410.225 1310.725, 410.431 1319.735, 409.073 1323.307 C 408.564 1324.648, 407.629 1333.790, 406.995 1343.622 C 406.362 1353.455, 405.694 1363.690, 405.511 1366.367 C 405.238 1370.350, 404.535 1371.894, 401.638 1374.867 C 399.691 1376.865, 397.408 1380.155, 396.566 1382.177 C 395.723 1384.200, 394.161 1386.131, 393.095 1386.470 C 391.313 1387.035, 384.770 1393.525, 383.881 1395.608 C 383.293 1396.984, 371.040 1406.928, 367.986 1408.507 C 366.491 1409.280, 357.446 1412.462, 347.884 1415.578 C 338.323 1418.695, 327.800 1422.465, 324.500 1423.956 C 318.065 1426.864, 311 1433.666, 311 1436.953 C 311 1438.024, 310.396 1439.260, 309.657 1439.700 C 306.170 1441.778, 302.067 1454.404, 303.590 1458.373 C 304.984 1462.006, 321.776 1468.525, 337.172 1471.410 C 361.809 1476.027, 388.264 1475.473, 410.402 1469.877 C 419.354 1467.614, 424.349 1465.271, 435.620 1458.048 C 439.954 1455.270, 445.670 1452.276, 448.322 1451.394 C 453.064 1449.818, 453.245 1449.837, 459.242 1452.528 C 464.687 1454.972, 466.098 1455.198, 472.420 1454.646 C 486.434 1453.420, 509.255 1449.079, 511.274 1447.255 C 513.138 1445.571, 513.188 1444.487, 512.487 1420.614 C 511.833 1398.332, 510.863 1389.309, 508.523 1383.750 C 508.001 1382.510, 508.248 1382, 509.370 1382 C 513.176 1382, 513.866 1378.325, 514.062 1357 C 514.328 1328.135, 512.345 1235.280, 510.548 1192.500 C 509.716 1172.700, 508.773 1147.050, 508.452 1135.500 C 508.131 1123.950, 507.246 1107.075, 506.487 1098 C 505.728 1088.925, 504.809 1074.300, 504.445 1065.500 C 503.639 1046.040, 503.279 873, 504.044 873 C 505.105 873, 510.097 895.700, 511.981 909.088 C 513.032 916.561, 516.637 938.139, 519.992 957.038 C 531.179 1020.054, 538.894 1067.290, 541.463 1088.500 C 545.669 1123.231, 545.906 1125.718, 547.020 1147 C 548.249 1170.472, 551.885 1208.790, 559.072 1274 C 561.830 1299.025, 564.073 1323.775, 564.057 1329 C 564.040 1334.225, 565.123 1348.175, 566.462 1360 C 568.887 1381.407, 568.910 1381.512, 571.932 1384.221 L 574.967 1386.942 573.421 1403.221 C 572.570 1412.174, 571.619 1427.949, 571.306 1438.276 C 570.777 1455.703, 570.871 1457.200, 572.616 1459.128 C 575.232 1462.018, 579.372 1464, 582.795 1464 C 587.051 1464, 589 1466.750, 589 1472.752 C 589 1479.417, 591.703 1482.655, 600.692 1486.759 C 610.152 1491.078, 620.971 1493.064, 638.500 1493.698 C 662.804 1494.578, 687.482 1490.931, 693.759 1485.531 C 696.040 1483.569, 696.289 1482.671, 696.120 1477.039 C 696.017 1473.575, 695.497 1469.929, 694.966 1468.936 C 694.435 1467.944, 694 1465.805, 694 1464.185 C 694 1457.647, 687.373 1443.200, 679.006 1431.500 C 672.956 1423.039, 655 1389.372, 655 1386.488 C 655 1385.554, 656.152 1383.419, 657.560 1381.746 L 660.121 1378.703 659.582 1352.602 C 659.286 1338.246, 658.801 1292.300, 658.504 1250.500 C 657.897 1164.983, 655.073 1095.206, 651.016 1065.500 C 649.595 1055.100, 649.070 994.028, 650.088 957.500 C 650.578 939.900, 651.217 904.369, 651.509 878.541 L 652.039 831.583 658.012 829.420 C 666.676 826.283, 666.802 826.112, 665.855 818.767 C 664.804 810.624, 660.315 752.503, 658.998 730 C 658.434 720.375, 657.542 708.225, 657.014 703 C 655.684 689.839, 655.718 689.307, 657.920 688.731 C 659.517 688.313, 659.754 687.579, 659.330 684.364 L 658.819 680.500 672.660 670.534 C 680.272 665.053, 693.250 655.129, 701.500 648.482 C 709.750 641.834, 721.225 632.855, 727 628.530 C 757.252 605.869, 762.336 601.102, 767.914 590.168 C 770.069 585.945, 770.075 585.791, 768.522 573.702 C 762.346 525.619, 751.060 476.627, 737.471 438.921 C 731.480 422.294, 731 420.350, 731 412.697 C 731 405.364, 730.266 402.036, 724.495 383.211 C 717.335 359.857, 708.524 336.342, 704.689 330.357 C 699.142 321.699, 697.362 320.734, 666.478 309.651 C 598.871 285.390, 580.642 277.531, 572.705 269.222 C 571.167 267.612, 568.017 263.440, 565.705 259.949 C 563.392 256.459, 561.041 253.464, 560.480 253.295 C 559.830 253.098, 559.593 255.616, 559.827 260.248 M 617.199 405.104 C 615.934 405.582, 608.509 406.477, 600.699 407.093 C 585.041 408.327, 586.299 407.740, 579.867 416.820 C 578.184 419.196, 577.084 421.417, 577.422 421.756 C 577.760 422.094, 585.566 421.832, 594.769 421.173 C 603.971 420.515, 614.144 419.982, 617.375 419.988 L 623.250 420 622.586 416.750 C 622.220 414.962, 621.651 411.575, 621.321 409.223 C 620.625 404.263, 620.296 403.934, 617.199 405.104 M 662.107 494.500 C 658.344 503.529, 647.758 547.129, 643.453 571.328 C 642.066 579.122, 640.764 586.288, 640.559 587.250 C 640.355 588.212, 640.368 589, 640.588 589 C 640.808 589, 644.479 586.412, 648.744 583.250 C 653.010 580.087, 658.637 576.150, 661.248 574.500 C 663.860 572.850, 665.999 570.825, 666.002 570 C 666.016 566.296, 672.342 559.415, 677.267 557.748 C 677.689 557.606, 677.154 555.764, 676.079 553.655 C 673.075 547.763, 668.499 525.649, 663.733 494 L 663.357 491.500 662.107 494.500 M 369.079 533.500 C 367.430 545.241, 366.791 553.333, 365.999 572.500 C 365.477 585.150, 364.565 603.600, 363.973 613.500 C 362.881 631.761, 363.441 650, 365.093 650 C 365.592 650, 366 648.720, 366 647.156 C 366 645.592, 367.403 637.604, 369.117 629.406 C 371.335 618.802, 372.329 611.036, 372.562 602.500 C 372.741 595.900, 373.161 585.775, 373.495 580 C 373.890 573.153, 373.556 564.616, 372.534 555.460 C 371.025 541.932, 369.371 531.421, 369.079 533.500 M 316.500 765.333 C 312.650 766.611, 308.044 768.417, 306.263 769.347 C 301.342 771.917, 296 776.982, 296 779.077 C 296 780.526, 296.972 779.975, 300.317 776.630 C 302.853 774.094, 306.671 771.586, 309.567 770.552 C 319.491 767.011, 346.532 767.638, 354.167 771.586 C 357.816 773.473, 358.194 773.387, 357.820 770.750 C 357.599 769.195, 355.955 767.728, 352.500 766 C 348.121 763.810, 346.010 763.470, 335.500 763.255 C 325.198 763.044, 322.510 763.338, 316.500 765.333 M 427.572 1385.750 C 427.263 1386.713, 425.320 1388.244, 423.255 1389.154 C 419.784 1390.683, 419.698 1390.815, 422.123 1390.904 C 423.565 1390.957, 426.864 1390.063, 429.452 1388.918 C 433.800 1386.995, 434.019 1386.731, 432.329 1385.450 C 429.837 1383.561, 428.244 1383.661, 427.572 1385.750 M 629 1402.500 C 629 1402.775, 629.225 1403, 629.500 1403 C 629.775 1403, 630 1402.775, 630 1402.500 C 630 1402.225, 629.775 1402, 629.500 1402 C 629.225 1402, 629 1402.225, 629 1402.500 M 407.543 1404.931 C 406.592 1406.470, 408.816 1407.169, 410.979 1406.011 C 412.091 1405.416, 413 1404.720, 413 1404.465 C 413 1403.584, 408.117 1404.001, 407.543 1404.931 M 625.500 1424 C 625.840 1424.550, 627.891 1425, 630.059 1425 C 632.227 1425, 634 1424.550, 634 1424 C 634 1423.450, 631.948 1423, 629.441 1423 C 626.656 1423, 625.122 1423.389, 625.500 1424 M 351 1438.087 C 349.075 1438.572, 346.488 1438.743, 345.250 1438.466 C 342.917 1437.943, 342.477 1438.628, 343.804 1440.717 C 344.541 1441.877, 352.948 1441.208, 361 1439.348 C 363.345 1438.807, 363.376 1438.720, 361.500 1437.956 C 358.961 1436.921, 355.452 1436.965, 351 1438.087 M 647.530 1454.892 L 643.561 1455.500 646.245 1457.250 C 647.886 1458.320, 650.855 1459, 653.883 1459 C 660.123 1459, 662 1458.282, 662 1455.893 C 662 1454.258, 661.284 1454.019, 656.750 1454.142 C 653.862 1454.220, 649.714 1454.557, 647.530 1454.892" stroke="none" fill="#000000" fill-rule="evenodd"/>
</svg>