<svg width="37" height="147" viewBox="0 0 37 147" fill="none" xmlns="http://www.w3.org/2000/svg">
<g clip-path="url(#clip0_166_2)">
<rect x="0.5" y="1.5" width="36" height="145" rx="1.5" fill="#121212" stroke="#2F2F2F"/>
<path d="M73.8843 80.6697C73.3351 80.11 72.4278 80.2033 71.9742 80.8796C71.7593 81.2062 71.6638 81.626 71.7354 81.8592C71.8548 82.1391 71.1385 83.002 68.9658 85.1244L66.029 87.9931H59.8212H53.6134L44.9464 96.4592L36.3032 104.902V125.962C36.3032 139.839 36.3749 146.999 36.542 146.999C36.7091 146.999 36.7807 139.863 36.7807 126.079V105.159L45.1851 96.9256L53.6134 88.6927H59.8212H66.029L69.1329 85.6608C71.7354 83.1186 72.3084 82.6755 72.7621 82.7921C73.932 83.072 74.7438 81.5094 73.8843 80.6697Z" fill="white"/>
<path d="M66.8646 69.8487C66.411 68.7759 64.5964 68.7292 63.9995 69.8021C63.7607 70.2685 63.5697 70.2685 55.9294 70.2685H48.1219L46.0446 72.2976L43.9435 74.35V75.6327V76.9155L41.1978 79.5976L38.452 82.2797V83.889C38.452 85.4982 38.4281 85.5449 37.4492 86.5244C36.5897 87.3874 36.3032 87.5273 35.4675 87.5273C34.5363 87.5273 34.3692 87.6672 31.0504 90.9091C28.042 93.8477 27.4929 94.2909 26.8243 94.2909C25.3679 94.2909 24.7471 95.7835 25.917 96.5298C26.4184 96.833 26.6572 96.8797 27.1108 96.6698C27.6839 96.4132 28.1614 95.3637 27.851 95.0605C27.7555 94.9672 29.2358 93.4046 31.0982 91.5621C34.4408 88.2969 34.5363 88.227 35.5391 88.227C36.4225 88.227 36.7091 88.087 37.7357 87.1541L38.9295 86.058V84.4021V82.7461L41.6753 80.064L44.4211 77.3819V75.9593V74.5599L46.4266 72.6474L48.4322 70.735H55.9294H63.4265L64.0472 71.4347C64.859 72.3442 65.9096 72.3909 66.602 71.528C67.1511 70.8516 67.175 70.6417 66.8646 69.8487Z" fill="white"/>
<path d="M63.5223 77.4983C62.8538 76.8453 61.7077 76.892 61.0392 77.615L60.49 78.198H55.7387H50.9634L49.6741 79.4808L48.3848 80.7635H46.5702H44.7795L42.7978 82.6993C40.8638 84.5884 40.8399 84.6351 40.8399 85.7779V86.944L35.2291 92.4248L29.6182 97.9057L29.6182 122.441C29.6182 138.65 29.6898 147 29.8569 147C30.0241 147 30.0957 138.697 30.0957 122.558L30.0957 98.1389L35.826 92.5414L41.5562 86.944V85.7779C41.5562 84.6584 41.604 84.5884 43.3231 82.9325L45.1138 81.23H46.8567H48.6236L49.7935 80.0638L50.9634 78.8977H55.7148H60.49L61.0392 79.4808C62.0658 80.5769 63.9998 79.9705 63.9998 78.5479C63.9998 78.2213 63.7849 77.7549 63.5223 77.4983Z" fill="white"/>
<path d="M60.8955 60.473C60.2031 59.7967 59.2958 59.8899 58.5079 60.7062L57.8393 61.4059H54.6638H51.4644L45.8058 66.9334L40.1232 72.4842V74.6998V76.9155L37.7356 79.2477C35.4913 81.4401 35.348 81.6267 35.348 82.5129C35.348 83.7723 34.393 84.7286 33.1992 84.7286C32.5068 84.7286 32.1247 84.9851 30.7638 86.2912C29.4745 87.5506 28.997 87.8538 28.3762 87.8538C27.8032 87.8771 27.5166 88.0404 27.254 88.4835C26.9436 89.0433 26.9436 89.1599 27.3018 89.7196C28.0658 90.8624 29.6177 90.2327 29.6177 88.7867C29.6177 88.2503 29.9281 87.7838 31.0026 86.7576C32.2202 85.5915 32.4829 85.4282 33.3424 85.4282C34.6795 85.4282 35.8255 84.2854 35.8255 82.956C35.8255 82.0931 35.9927 81.8832 38.2131 79.7142L40.6008 77.3819V75.1663V72.9506L46.2833 67.3998L51.9419 61.8724H54.9026H57.8393L58.5317 62.5954C59.1287 63.2251 59.3435 63.2951 60.0121 63.1784C60.418 63.1085 60.9194 62.8519 61.0865 62.642C61.5163 62.059 61.4446 61.0094 60.8955 60.473Z" fill="white"/>
<path d="M50.4623 28.7541C50.0803 27.7279 48.2896 27.4714 47.6688 28.3343C47.0958 29.1273 47.2152 29.897 48.0031 30.5733L48.7194 31.1797V45.5464V59.8899L42.2728 66.187L35.8263 72.4841V75.1662V77.8483L29.8572 83.679L23.8882 89.5096V93.941V98.3956L24.8432 99.3052C25.5595 99.9815 25.7983 100.401 25.7983 100.938C25.7983 101.824 26.1803 102.22 26.9921 102.22C27.78 102.22 28.1859 101.824 28.1859 101.031C28.1859 100.215 27.5412 99.585 26.8966 99.7483C26.5384 99.8416 26.1325 99.6084 25.3924 98.9087L24.3657 97.9291V93.941V89.9761L30.3586 84.1221L36.3515 78.2448L36.3277 75.5161L36.2799 72.764L42.7265 66.4435L49.1969 60.1231V45.4998C49.1969 31.4829 49.2208 30.8765 49.6267 30.7366C49.8893 30.6666 50.1997 30.3401 50.343 30.0136C50.6533 29.3839 50.6533 29.2906 50.4623 28.7541Z" fill="white"/>
<path d="M46.8571 85.0545C45.9737 83.7485 43.8009 84.5181 43.9919 86.1041C44.0397 86.7571 43.5383 87.3402 38.2139 92.5878L32.3643 98.3718L32.4359 122.697C32.4598 138.557 32.5791 146.999 32.7224 146.999C32.8895 146.999 32.9612 138.627 32.9612 122.814V98.605L38.7392 92.9609C44.0397 87.7833 44.565 87.3402 45.1857 87.4568C46.1885 87.6434 47.0481 87.0136 47.0481 86.0574C47.0481 85.6609 46.9526 85.1945 46.8571 85.0545Z" fill="white"/>
<path d="M34.3445 16.44C34.1774 16.2768 33.7715 16.1602 33.3895 16.1602C32.1002 16.1602 31.5988 17.9094 32.7448 18.4924C33.1985 18.7256 33.1985 19.2154 33.1985 38.0368V57.3246L28.7814 61.6393L24.3643 65.954V74.2569V82.5831L23.7674 82.9562C22.9556 83.4693 22.9079 84.9853 23.6958 85.5217C24.4359 86.0348 25.2238 85.9882 25.7969 85.4284C26.5132 84.7287 26.4176 83.6792 25.5581 83.0495L24.8418 82.5364V74.4901V66.4205L29.2589 62.1058L33.676 57.7911V38.2001C33.676 18.8656 33.676 18.609 34.1535 18.3058C34.6788 17.9793 34.7982 16.8832 34.3445 16.44Z" fill="white"/>
<path d="M31.337 7.22698C30.3342 6.34072 28.6628 7.11037 28.6628 8.43976C28.6628 8.90621 28.8777 9.27937 29.2597 9.58257L29.8566 10.049V32.2988L29.8566 54.5253L25.4395 58.84L21.0225 63.1547V81.8128L21.0225 100.471L23.7682 103.153L26.514 105.835V126.406C26.514 139.979 26.5856 147 26.7527 147C26.9199 147 26.9915 139.91 26.9915 126.172V105.369L24.3651 102.803L21.7387 100.238L21.7387 81.8128V63.3879L26.1558 59.0732L30.5729 54.7585L30.5729 32.3221C30.5729 18.6551 30.6684 9.86244 30.7878 9.86244C31.719 9.86244 32.101 7.90334 31.337 7.22698Z" fill="white"/>
<path d="M27.4935 13.0345C27.2309 12.8013 26.7772 12.6613 26.4429 12.708C25.1298 12.8712 25.082 12.638 25.082 6.57411C25.082 1.76965 25.0343 1 24.7239 1C24.4135 1 24.3657 1.76965 24.3657 6.55079C24.3657 12.1016 24.3657 12.1249 24.9388 12.638C25.3208 12.9878 25.464 13.3144 25.3685 13.7342C25.1298 14.9236 26.7056 15.7166 27.5412 14.807C28.0665 14.2239 28.0426 13.5243 27.4935 13.0345Z" fill="white"/>
<path d="M26.9915 48.5316L26.2752 47.8319L26.2752 32.8587V17.9089L24.3652 16.0431L22.4551 14.1773V7.60031C22.4551 3.35559 22.3596 1 22.2163 1C22.073 1 21.9775 3.37891 21.9775 7.71692V14.4105L23.8876 16.323L25.7977 18.2354V33.0453L25.7977 47.8319L25.0814 48.5316C24.2458 49.3478 24.1741 49.9309 24.7949 50.7006C25.7022 51.7734 27.7078 51.0737 27.7078 49.6977C27.7078 49.4411 27.3974 48.928 26.9915 48.5316Z" fill="white"/>
<path d="M24.8426 19.9845C24.5561 19.2615 23.9831 18.9116 23.1235 19.0049C21.6193 19.1449 21.2612 21.2672 22.646 21.8736L23.1713 22.1068V33.6515V45.2196L22.2162 46.1292L21.2612 47.0387V53.126L21.2612 59.2132L19.7092 60.7058L18.1573 62.1985V76.1221C18.1573 89.7192 18.1573 90.0224 17.6798 90.4422C17.1545 90.9086 17.0351 91.9348 17.4887 92.378C17.8469 92.7278 18.9452 92.7278 19.3033 92.378C19.757 91.9348 19.6376 90.9086 19.1123 90.4422C18.6348 90.0224 18.6348 89.7192 18.6348 76.3553V62.6649L20.3061 61.0557L21.9775 59.4464L21.9775 53.3592V47.272L22.8131 46.479L23.6488 45.686V33.9314V22.1768L24.2218 21.7337C24.8665 21.2206 25.0814 20.6375 24.8426 19.9845Z" fill="white"/>
<path d="M24.7233 110.057C24.0786 109.451 23.3862 109.381 22.7177 109.847C21.8342 110.5 21.7626 111.596 22.5505 112.343L23.1713 112.879V123.841V134.779L22.0969 135.805L21.0225 136.831L21.0225 141.916C21.0225 146.277 21.0702 147 21.3806 147C21.691 147 21.7387 146.277 21.7387 141.916L21.7387 136.831L22.8132 135.805L23.8876 134.779V123.771V112.762L24.4845 112.389C25.1769 111.946 25.3202 110.64 24.7233 110.057Z" fill="white"/>
<path d="M20.5445 22.5734L19.8282 21.8971V11.4485C19.8282 2.30607 19.7804 1 19.47 1C19.1597 1 19.1119 2.32939 19.1119 11.4719V21.9437L19.8282 22.6901L20.5445 23.4364V33.0453L20.5445 42.6542L19.3507 43.7971L18.1569 44.9399V49.5578C18.1569 53.8724 18.133 54.1756 17.7032 54.4089C16.6765 54.922 16.9153 56.368 18.0613 56.6478C19.3029 56.951 20.0908 55.3884 19.1119 54.5255C18.6583 54.129 18.6344 53.8025 18.6344 49.651V45.1731L19.9476 43.9137L21.2608 42.6542L21.2608 32.952V23.2498L20.5445 22.5734Z" fill="white"/>
<path d="M18.1336 25.3253C17.6799 24.1125 15.7698 24.6256 15.7698 25.955C15.7698 26.3981 15.937 26.748 16.2474 26.9346C16.701 27.2144 16.7249 27.4943 16.7249 31.3425C16.7249 35.4007 16.7249 35.4473 17.3218 35.9837C17.8709 36.4968 17.9187 36.6834 17.9187 38.6425V40.7649L16.0086 42.6307L14.0985 44.4965V56.8575L14.0985 69.2418L13.2628 70.0348L12.4272 70.8278V77.4514V84.075L11.7109 84.7281C10.8752 85.4977 10.8036 86.0575 11.496 86.9204C12.1645 87.7367 13.1673 87.7367 13.8359 86.9204C14.5283 86.0575 14.4567 85.4977 13.621 84.7281L12.9047 84.075V77.568V71.061L13.8598 70.1514L14.8148 69.2418L14.8148 56.8575V44.4732L16.6055 42.7473L18.3962 41.0214V38.6425C18.3962 36.4502 18.3485 36.2636 17.7993 35.7505C17.2024 35.2141 17.2024 35.1675 17.2024 31.2259C17.2024 27.5876 17.2502 27.2144 17.6561 26.9579C18.2052 26.6314 18.3962 25.9783 18.1336 25.3253Z" fill="white"/>
<path d="M12.666 92.3079L6.93576 86.7105V85.5444C6.93576 84.3782 6.91189 84.3316 5.07342 82.5591L3.23496 80.7632H1.42037H-0.370337L-1.65965 79.4805L-2.94896 78.1977H-7.89132C-12.6427 78.1977 -12.8576 78.1744 -13.0008 77.7313C-13.3112 76.775 -15.1735 76.7984 -15.7227 77.7779C-16.4629 79.0373 -15.2929 80.3434 -13.7649 79.9702C-13.4306 79.9003 -13.0724 79.6204 -13.0008 79.3639C-12.8576 78.9207 -12.6427 78.8974 -7.89132 78.8974H-2.94896L-1.77903 80.0635L-0.609098 81.2297H1.08611H2.75744L4.61978 83.0488C6.36274 84.7514 6.45824 84.9146 6.45824 85.8942V86.9437L12.1885 92.5412L17.9188 98.1386V122.557C17.9188 138.697 17.9904 147 18.1576 147C18.3247 147 18.3963 138.65 18.3963 122.441V97.9054L12.666 92.3079Z" fill="white"/>
<path d="M16.9637 1C16.8205 1 16.725 4.24185 16.725 10.2824V19.5415L14.8149 21.4073L12.9048 23.2731V29.7102C12.9048 35.1677 12.9525 36.1939 13.2629 36.4504C13.4539 36.6137 13.6211 37.0335 13.6211 37.4066C13.6211 38.3162 14.6 38.9693 15.4118 38.5961C16.725 38.013 16.2236 36.1006 14.791 36.2638C13.4062 36.4038 13.3823 36.2638 13.3823 29.7102V23.7396L15.2924 21.8738L17.2025 20.008V10.5156C17.2025 4.33514 17.1309 1 16.9637 1Z" fill="white"/>
<path d="M9.70483 92.6814C4.18944 87.2939 3.87905 86.944 3.99843 86.2677C4.16556 85.2648 3.44928 84.4252 2.4226 84.4252C1.46756 84.4252 0.894531 84.9616 0.894531 85.8712C0.894531 86.9673 1.61082 87.5971 2.66137 87.4571C3.52091 87.3405 3.59254 87.4105 9.29893 92.9846L15.0531 98.6053L15.0531 122.814C15.0531 138.79 15.1247 147 15.2918 147C15.459 147 15.5306 138.744 15.5306 122.674L15.5306 98.3721L9.70483 92.6814Z" fill="white"/>
<path d="M14.0984 1C13.9552 1 13.8597 3.93865 13.8597 9.32619C13.8597 17.4658 13.8597 17.6524 13.3583 18.1655C13.0718 18.4453 12.7136 18.6319 12.5226 18.562C12.3316 18.492 11.9018 18.6086 11.5676 18.8418C10.708 19.3782 10.8274 20.591 11.7824 20.9175C12.7136 21.2441 13.2389 20.8709 13.3344 19.8447C13.3821 19.3782 13.6209 18.8185 13.8835 18.6086C14.3133 18.2121 14.3372 17.8156 14.3372 9.58273C14.3372 4.00862 14.2417 1 14.0984 1Z" fill="white"/>
<path d="M10.517 42.1647L8.84565 40.5554V34.5615C8.84565 29.0807 8.86953 28.5676 9.27542 28.2178C9.51418 27.9845 10.0395 27.8213 10.4215 27.8213C11.3049 27.8213 11.7108 27.4481 11.7108 26.6551C11.7108 25.8855 11.3049 25.489 10.517 25.489C9.72907 25.489 9.32318 25.8855 9.32318 26.6318C9.32318 26.9583 9.10829 27.4248 8.84565 27.7047C8.36813 28.1944 8.34425 28.521 8.32038 34.4916L8.32038 40.7653L10.0156 42.5379L11.7108 44.3104V55.3653L11.7108 66.4436L10.3976 67.703L9.08441 68.9624V74.0701V79.1777L8.48751 79.6442C7.31758 80.5305 8.00999 82.3963 9.51418 82.3963C10.3737 82.3963 10.9945 81.7432 10.9945 80.857C10.9945 80.0407 10.8035 79.7608 10.1111 79.3877C9.56194 79.1078 9.56194 79.0611 9.56194 74.28V69.4289L10.8751 68.1695L12.1883 66.91L12.1883 55.342L12.1883 43.774L10.517 42.1647Z" fill="white"/>
<path d="M3.16322 96.5531L-5.38444 88.2036L-11.5922 88.2269H-17.7762L-20.8084 85.2649C-23.3154 82.7927 -23.8168 82.163 -23.8168 81.6033C-23.7929 80.4605 -25.0823 79.9007 -25.8702 80.6704C-26.7058 81.4633 -26.0134 83.0026 -24.9151 82.7927C-24.4854 82.7228 -23.7691 83.2825 -21.3098 85.7081L-18.2537 88.6934H-12.0459H-5.83809L2.59019 96.9263L10.9946 105.136V126.08C10.9946 144.528 11.0423 147 11.3527 147C11.6631 147 11.7109 144.504 11.7109 125.94V104.903L3.16322 96.5531Z" fill="white"/>
<path d="M10.8755 1C10.5652 1 10.5174 2.00287 10.5174 8.53321V16.0431L7.89102 18.6086L5.26465 21.1741L5.26465 32.369L5.26465 43.5872L6.93598 45.1964L8.60731 46.8057V54.8986C8.60731 62.6651 8.58343 62.9916 8.12979 63.3881C7.55676 63.9012 7.50901 64.7408 8.03428 65.2306C8.96545 66.1635 10.5413 65.1373 10.0638 63.9245C9.94437 63.598 9.65786 63.2715 9.46685 63.2015C9.13258 63.0616 9.08483 62.1053 9.08483 54.8287V46.5724L7.53288 45.0798L5.98093 43.5872L5.98093 32.369L5.98093 21.1741L8.60731 18.6086L11.2337 16.0431V8.53321C11.2337 2.00287 11.1859 1 10.8755 1Z" fill="white"/>
<path d="M10.2781 98.3722C9.99162 98.1157 9.63348 98.0224 9.27533 98.1157C8.79781 98.2323 8.03378 97.5559 4.02258 93.6377L-0.704893 89.0431V87.4106V85.778L-2.68661 83.8422L-4.64446 81.9297H-9.77783H-14.9112L-19.0418 77.8949L-23.1485 73.8834V69.4754V65.0908L-22.4322 64.4377C-21.5965 63.6681 -21.5249 63.1084 -22.2173 62.2454C-22.8381 61.4758 -23.8409 61.4525 -24.5333 62.1755C-25.2496 62.9218 -25.1779 63.6681 -24.3423 64.4377L-23.626 65.0908V69.6154V74.1166L-19.2567 78.3847L-14.9112 82.6294H-9.75395H-4.5967L-2.9015 84.3553L-1.18242 86.0812V87.807V89.5096L3.56894 94.1508C6.45795 96.9728 8.27254 98.9086 8.20091 99.1185C8.0099 99.6083 8.79781 100.588 9.41859 100.588C10.5885 100.588 11.1616 99.1652 10.2781 98.3722Z" fill="white"/>
<path d="M0.751742 97.6488L-6.76924 90.3255H-13.9321H-21.1188L-25.13 86.4073L-29.1173 82.5124V70.1281V57.7438L-28.5204 57.4872C-27.7802 57.1607 -27.4937 56.1578 -27.9474 55.3649C-28.4488 54.5019 -30.0962 54.3853 -30.6454 55.155C-31.1945 55.9246 -31.1229 56.461 -30.3111 57.254L-29.5948 57.9537V70.4546V82.9789L-25.5836 86.8971L-21.5963 90.792H-14.3141H-7.03188L0.321972 97.9754L7.65195 105.135L7.65195 126.079C7.65195 139.723 7.72358 147 7.89071 147C8.03397 147 8.15335 139.653 8.17722 125.986L8.24885 104.972L0.751742 97.6488Z" fill="white"/>
<path d="M1.51603 76.2157C1.25339 75.9592 0.89525 75.8659 0.489356 75.9592C-0.012043 76.0525 -0.298557 75.9359 -0.704451 75.4927L-1.2536 74.933H-9.39537H-17.5133L-18.8981 73.6036L-20.2829 72.2742L-20.2829 69.5688C-20.2829 66.98 -20.259 66.8167 -19.686 66.3036C-19.0891 65.7672 -19.0891 65.7439 -19.0891 61.5225V57.3011L-19.8054 56.6247L-20.5216 55.9484V48.3918V40.8353L-19.8054 40.1823C-18.9458 39.3893 -18.8981 38.7129 -19.686 37.9666C-20.4261 37.2203 -21.0947 37.2203 -21.8348 37.9666C-22.6227 38.7129 -22.575 39.3893 -21.7155 40.1823L-20.9992 40.8353V48.6251V56.4148L-20.2829 57.0912L-19.5666 57.7675V61.6391V65.5107L-20.2829 66.187L-20.9992 66.8634L-20.9992 69.6621V72.4375L-19.4233 73.9301L-17.8236 75.3995H-9.80126L-1.77888 75.4228L-1.11035 75.9825C-0.704451 76.3557 -0.46569 76.7755 -0.46569 77.2186C-0.46569 78.0349 -0.0836714 78.4314 0.728117 78.4314C1.06238 78.4314 1.46828 78.3148 1.63541 78.1515C2.04131 77.755 1.99355 76.6589 1.51603 76.2157Z" fill="white"/>
<path d="M23.1582 50.3008V58.0996H21.5293V52.1582H19.7012V57.4199H18.1719V52.1582H15.623V58.2227H14V50.3008H23.1582ZM11.1758 61.7559V60.0215H20.9141V61.7559H20.2637C20.3691 61.9082 20.4688 62.0879 20.5625 62.2949C20.6562 62.502 20.7383 62.7246 20.8086 62.9629C20.8789 63.2012 20.9336 63.4473 20.9727 63.7012C21.0156 63.9551 21.0371 64.209 21.0371 64.4629C21.0371 65.0488 20.9512 65.5859 20.7793 66.0742C20.6074 66.5664 20.3652 66.9883 20.0527 67.3398C19.7402 67.6914 19.3652 67.9648 18.9277 68.1602C18.4941 68.3594 18.0137 68.459 17.4863 68.459C16.9355 68.459 16.4375 68.3555 15.9922 68.1484C15.5508 67.9414 15.1719 67.6543 14.8555 67.2871C14.543 66.9238 14.3008 66.4902 14.1289 65.9863C13.9609 65.4863 13.877 64.9434 13.877 64.3574C13.877 64.1074 13.8926 63.8594 13.9238 63.6133C13.9551 63.3711 13.998 63.1367 14.0527 62.9102C14.1074 62.6875 14.1719 62.4766 14.2461 62.2773C14.3242 62.082 14.4082 61.9082 14.498 61.7559H11.1758ZM16.1738 61.7559C16.0332 61.9316 15.9141 62.1172 15.8164 62.3125C15.7188 62.5078 15.6387 62.707 15.5762 62.9102C15.5137 63.1133 15.4668 63.3184 15.4355 63.5254C15.4082 63.7324 15.3945 63.9336 15.3945 64.1289C15.3945 64.5273 15.4473 64.8809 15.5527 65.1895C15.6621 65.502 15.8105 65.7637 15.998 65.9746C16.1855 66.1895 16.4062 66.3535 16.6602 66.4668C16.9141 66.5801 17.1895 66.6367 17.4863 66.6367C17.7637 66.6367 18.0254 66.5801 18.2715 66.4668C18.5176 66.3574 18.7324 66.1973 18.916 65.9863C19.1035 65.7793 19.25 65.5273 19.3555 65.2305C19.4648 64.9375 19.5195 64.6074 19.5195 64.2402C19.5195 64.0059 19.4961 63.7715 19.4492 63.5371C19.4062 63.3027 19.3438 63.0762 19.2617 62.8574C19.1797 62.6426 19.0801 62.4395 18.9629 62.248C18.8457 62.0605 18.7148 61.8965 18.5703 61.7559H16.1738ZM17.457 69.6836C17.9531 69.6836 18.418 69.7832 18.8516 69.9824C19.2852 70.1855 19.6641 70.4727 19.9883 70.8438C20.3125 71.2188 20.5684 71.6699 20.7559 72.1973C20.9434 72.7285 21.0371 73.3242 21.0371 73.9844C21.0371 74.6445 20.9434 75.2383 20.7559 75.7656C20.5684 76.2969 20.3125 76.748 19.9883 77.1191C19.6641 77.4941 19.2852 77.7812 18.8516 77.9805C18.418 78.1836 17.9531 78.2852 17.457 78.2852C16.9609 78.2852 16.4961 78.1836 16.0625 77.9805C15.6289 77.7812 15.25 77.4941 14.9258 77.1191C14.6016 76.748 14.3457 76.2969 14.1582 75.7656C13.9707 75.2383 13.877 74.6445 13.877 73.9844C13.877 73.3242 13.9707 72.7285 14.1582 72.1973C14.3457 71.6699 14.6016 71.2188 14.9258 70.8438C15.25 70.4727 15.6289 70.1855 16.0625 69.9824C16.4961 69.7832 16.9609 69.6836 17.457 69.6836ZM17.457 71.5059C17.1797 71.5059 16.916 71.5605 16.666 71.6699C16.4199 71.7832 16.2012 71.9453 16.0098 72.1562C15.8223 72.3711 15.6719 72.6309 15.5586 72.9355C15.4492 73.2441 15.3945 73.5938 15.3945 73.9844C15.3945 74.375 15.4492 74.7227 15.5586 75.0273C15.6719 75.3359 15.8223 75.5957 16.0098 75.8066C16.2012 76.0215 16.4199 76.1836 16.666 76.293C16.916 76.4062 17.1797 76.4629 17.457 76.4629C17.7344 76.4629 17.998 76.4062 18.248 76.293C18.498 76.1836 18.7168 76.0215 18.9043 75.8066C19.0957 75.5957 19.2461 75.3359 19.3555 75.0273C19.4688 74.7227 19.5254 74.375 19.5254 73.9844C19.5254 73.5938 19.4688 73.2441 19.3555 72.9355C19.2461 72.6309 19.0957 72.3711 18.9043 72.1562C18.7168 71.9453 18.498 71.7832 18.248 71.6699C17.998 71.5605 17.7344 71.5059 17.457 71.5059ZM17.4395 79.6211C17.9473 79.6211 18.4199 79.7129 18.8574 79.8965C19.2988 80.084 19.6797 80.3555 20 80.7109C20.3242 81.0703 20.5781 81.5078 20.7617 82.0234C20.9453 82.543 21.0371 83.1348 21.0371 83.7988C21.0371 84.0879 21.0195 84.3789 20.9844 84.6719C20.9492 84.9648 20.8984 85.2461 20.832 85.5156C20.7695 85.7891 20.6934 86.0449 20.6035 86.2832C20.5176 86.5215 20.4219 86.7285 20.3164 86.9043L19.0098 86.1016C19.1855 85.7227 19.3145 85.3633 19.3965 85.0234C19.4785 84.6875 19.5195 84.3457 19.5195 83.998C19.5195 83.5996 19.4668 83.2422 19.3613 82.9258C19.2598 82.6094 19.1152 82.3398 18.9277 82.1172C18.7441 81.8984 18.5254 81.7305 18.2715 81.6133C18.0215 81.5 17.748 81.4434 17.4512 81.4434C17.1543 81.4434 16.8789 81.5039 16.625 81.625C16.375 81.75 16.1582 81.9238 15.9746 82.1465C15.7949 82.373 15.6523 82.6445 15.5469 82.9609C15.4453 83.2812 15.3945 83.6367 15.3945 84.0273C15.3945 84.457 15.4551 84.8613 15.5762 85.2402C15.6973 85.623 15.8594 85.9785 16.0625 86.3066L14.7559 87.1094C14.6309 86.9023 14.5137 86.6777 14.4043 86.4355C14.2988 86.1934 14.207 85.9336 14.1289 85.6562C14.0508 85.3828 13.9902 85.0938 13.9473 84.7891C13.9004 84.4883 13.877 84.1758 13.877 83.8516C13.877 83.1914 13.9668 82.5996 14.1465 82.0762C14.3262 81.5527 14.5742 81.1094 14.8906 80.7461C15.2109 80.3828 15.5879 80.1035 16.0215 79.9082C16.4551 79.7168 16.9277 79.6211 17.4395 79.6211ZM23.7148 88.9785V90.7129H20.3867C20.5859 91.0762 20.7441 91.4805 20.8613 91.9258C20.9785 92.375 21.0371 92.8457 21.0371 93.3379C21.0371 93.9082 20.9531 94.4199 20.7852 94.873C20.6172 95.3301 20.375 95.7168 20.0586 96.0332C19.7461 96.3496 19.3652 96.5918 18.916 96.7598C18.4668 96.9316 17.9609 97.0176 17.3984 97.0176H14V95.2891H17.3281C17.6563 95.2891 17.9551 95.2363 18.2246 95.1309C18.498 95.0254 18.7324 94.8711 18.9277 94.668C19.123 94.4648 19.2734 94.2168 19.3789 93.9238C19.4883 93.6348 19.543 93.3066 19.543 92.9395C19.543 92.498 19.4727 92.0879 19.332 91.709C19.1914 91.3301 19.0137 90.998 18.7988 90.7129H14V88.9785H23.7148Z" fill="#E8E92B"/>
</g>
<defs>
<clipPath id="clip0_166_2">
<rect width="37" height="147" fill="white"/>
</clipPath>
</defs>
</svg>
