<svg width="460" height="559" viewBox="0 0 460 559" fill="none" xmlns="http://www.w3.org/2000/svg">
<g clip-path="url(#clip0_132_97)">
<path d="M359.084 109.71C358.935 109.735 358.755 109.828 358.603 109.959C358.471 110.073 358.267 110.283 357.941 110.642C357.846 110.745 357.699 110.904 357.613 110.994C357.528 111.085 357.329 111.297 357.173 111.467C357.018 111.637 356.836 111.832 356.771 111.9C356.478 112.21 356.321 112.442 355.96 113.103C355.783 113.429 355.71 113.586 355.634 113.801C355.556 114.021 355.535 114.139 355.525 114.413C355.517 114.67 355.558 115.333 355.599 115.558C355.601 115.575 355.609 115.662 355.614 115.752C355.642 116.184 355.677 116.464 355.776 117.054C355.8 117.206 355.822 117.341 355.822 117.354C355.823 117.378 355.821 117.377 355.722 117.305C355.315 117.012 354.709 116.651 354.311 116.467C354.09 116.363 353.946 116.316 353.73 116.273C353.3 116.187 352.94 116.217 352.873 116.345C352.818 116.447 352.89 116.546 353.337 116.987C353.615 117.26 353.799 117.448 353.994 117.658C354.096 117.768 354.189 117.867 354.203 117.879L354.226 117.902L354.195 117.908C354.178 117.912 354.067 117.922 353.949 117.93C353.602 117.955 353.598 117.956 353.55 118.021C353.52 118.061 353.517 118.072 353.519 118.113C353.52 118.151 353.526 118.167 353.554 118.204C353.626 118.304 353.833 118.441 354.128 118.585C354.372 118.706 354.603 118.803 355.091 118.988C355.339 119.084 355.586 119.182 355.64 119.207C355.805 119.286 355.941 119.406 356.023 119.545C356.131 119.731 356.194 119.964 356.215 120.256C356.243 120.66 356.165 121.007 356.01 121.164C355.975 121.2 355.945 121.219 355.866 121.256C355.757 121.309 355.738 121.316 355.332 121.477C354.876 121.657 354.702 121.741 354.639 121.811C354.604 121.848 354.589 121.921 354.599 121.993C354.621 122.142 354.759 122.237 355.027 122.285C355.26 122.328 355.707 122.312 356.053 122.249C356.193 122.223 356.423 122.217 356.527 122.236C356.64 122.257 356.732 122.285 356.902 122.349C357.2 122.46 357.429 122.601 357.499 122.715C357.525 122.757 357.536 122.829 357.522 122.862C357.503 122.905 357.431 122.955 357.349 122.983C357.207 123.031 357.122 123.043 356.825 123.053C356.553 123.062 356.481 123.061 356.2 123.036C355.746 122.996 355.288 122.924 354.702 122.799C353.401 122.521 352.332 122.124 351.602 121.649C351.513 121.592 351.151 121.312 351.006 121.19C350.816 121.03 350.64 120.864 350.498 120.712C350.028 120.207 349.885 119.825 349.935 119.19C349.998 118.371 350.27 117.37 350.562 116.883C350.593 116.831 350.655 116.738 350.7 116.676C350.746 116.615 350.848 116.47 350.93 116.354C351.293 115.834 351.405 115.675 351.472 115.586C351.511 115.534 351.726 115.27 351.949 115C352.502 114.331 352.525 114.303 352.927 113.798C353.004 113.702 353.113 113.569 353.168 113.503C353.673 112.903 354.031 112.428 354.359 111.918C354.401 111.852 354.458 111.765 354.486 111.724C354.815 111.227 355.042 110.818 355.141 110.549C355.192 110.41 355.21 110.323 355.212 110.214C355.214 110.068 355.189 110.001 355.114 109.947C355.069 109.915 355.046 109.91 354.974 109.917C354.859 109.928 354.753 110 354.603 110.168C354.524 110.258 354.31 110.487 354.296 110.497C354.289 110.502 353.877 110.922 353.799 111.003C353.768 111.036 353.739 111.065 353.737 111.068C353.721 111.081 353.473 111.347 353.117 111.733C352.72 112.162 352.395 112.507 351.857 113.069C351.815 113.112 351.706 113.228 351.614 113.325C351.351 113.603 351.26 113.693 350.845 114.092C350.524 114.401 350.434 114.493 350.321 114.623C350.214 114.748 350.135 114.823 350.039 114.886C349.71 115.108 349.35 115.16 349.061 115.03C348.988 114.997 348.841 114.879 348.77 114.797C348.602 114.602 348.452 114.352 348.303 114.02C348.077 113.513 347.95 113.131 347.85 112.638C347.803 112.409 347.791 112.353 347.763 112.238C347.651 111.78 347.523 111.537 347.362 111.484C347.243 111.446 347.107 111.513 347.039 111.646C346.998 111.725 346.979 111.789 346.956 111.929C346.921 112.142 346.919 112.268 346.937 112.786C346.954 113.255 346.964 113.372 347 113.536C347.117 114.07 347.386 114.719 347.915 115.742C348.243 116.376 348.346 116.685 348.337 117.002C348.331 117.184 348.284 117.325 348.183 117.462C348.061 117.629 347.885 117.72 347.556 117.783C347.464 117.801 347.42 117.805 347.189 117.813C346.872 117.824 346.722 117.813 346.415 117.76C346.171 117.716 345.877 117.621 345.746 117.543C345.662 117.493 345.502 117.369 345.206 117.123C344.793 116.781 344.626 116.657 344.49 116.59C344.34 116.516 344.246 116.509 344.187 116.57C344.15 116.608 344.14 116.65 344.144 116.746C344.151 116.883 344.209 117.087 344.311 117.325C344.415 117.567 344.508 117.73 344.637 117.895C345.123 118.519 345.663 118.927 346.218 119.091C346.336 119.127 346.377 119.134 346.575 119.166C347.125 119.254 347.316 119.29 347.495 119.34C348.038 119.493 348.306 119.73 348.412 120.154C348.441 120.27 348.444 120.464 348.418 120.559C348.365 120.747 348.273 120.889 348.106 121.039C347.912 121.214 347.649 121.355 347.321 121.463C347.161 121.516 347.08 121.537 346.857 121.587C346.752 121.61 346.608 121.645 346.539 121.665C346.031 121.807 345.659 122.019 345.545 122.232C345.511 122.294 345.51 122.374 345.54 122.423C345.584 122.495 345.654 122.521 345.853 122.537C346.206 122.566 347.027 122.539 348.353 122.453C348.517 122.441 348.825 122.427 349.037 122.419C349.447 122.404 349.428 122.403 349.722 122.437C350.004 122.471 350.236 122.536 350.46 122.644C350.654 122.738 350.752 122.802 351.043 123.026C351.345 123.259 351.568 123.393 351.94 123.565C352.134 123.654 352.524 123.806 352.732 123.871C353.33 124.059 353.974 124.194 354.602 124.262C356.236 124.44 357.792 124.704 358.218 124.874C358.306 124.91 358.331 124.933 358.338 124.985C358.342 125.019 358.34 125.034 358.325 125.061C358.268 125.162 358.064 125.288 357.869 125.343C357.765 125.372 357.701 125.375 357.635 125.35C357.608 125.339 357.433 125.251 357.248 125.156C356.883 124.965 356.716 124.885 356.528 124.808C355.968 124.578 355.661 124.529 354.929 124.554C354.574 124.566 354.386 124.582 354.101 124.623C353.422 124.72 353.01 124.88 352.897 125.093C352.849 125.182 352.869 125.363 352.948 125.534C353.056 125.772 353.291 126.052 353.574 126.28C353.955 126.589 354.308 126.796 354.746 126.968C355.268 127.174 355.865 127.277 356.596 127.284C356.793 127.285 357.017 127.278 357.087 127.267C357.251 127.241 357.331 127.225 357.348 127.219C357.358 127.214 357.38 127.208 357.398 127.205C357.428 127.2 357.527 127.171 357.566 127.157C357.61 127.141 357.676 127.122 357.687 127.122C357.716 127.12 357.666 127.297 357.61 127.393C357.567 127.467 357.535 127.519 357.519 127.54C357.509 127.551 357.502 127.563 357.502 127.566C357.502 127.569 357.488 127.59 357.472 127.611C357.455 127.632 357.441 127.652 357.441 127.655C357.441 127.657 357.431 127.672 357.419 127.686C357.407 127.701 357.397 127.715 357.397 127.718C357.397 127.721 357.388 127.735 357.375 127.75C357.363 127.764 357.353 127.778 357.353 127.779C357.353 127.781 357.333 127.816 357.307 127.857C357.26 127.933 357.239 127.979 357.101 128.294C356.752 129.091 356.512 129.841 356.35 130.638C356.201 131.372 356.147 132.032 356.151 133.088C356.152 133.376 356.207 135.067 356.221 135.236C356.225 135.286 356.234 135.412 356.24 135.516C356.247 135.621 356.258 135.774 356.266 135.856C356.274 135.939 356.291 136.118 356.303 136.255C356.315 136.391 356.341 136.669 356.36 136.873C356.38 137.077 356.4 137.296 356.405 137.36C356.411 137.423 356.418 137.504 356.422 137.538C356.435 137.651 356.453 138.264 356.447 138.394C356.424 138.867 356.351 139.145 356.199 139.337C356.137 139.416 356.012 139.556 355.899 139.674C355.415 140.184 354.872 140.509 354.219 140.682C353.941 140.755 353.748 140.783 353.072 140.846C352.447 140.904 352.095 140.927 351.627 140.942C351.172 140.956 350.945 140.953 350.657 140.93C350.586 140.924 350.445 140.913 350.344 140.906C350.122 140.89 349.923 140.874 349.805 140.863C349.757 140.858 349.62 140.848 349.501 140.839C348.775 140.785 348.249 140.696 347.629 140.524C347.384 140.456 347.34 140.443 347.009 140.335C346.702 140.236 346.575 140.199 346.33 140.14C345.705 139.986 344.838 139.843 343.86 139.73C342.69 139.594 341.777 139.565 341.091 139.643C340.934 139.661 340.668 139.705 340.542 139.732C340.234 139.8 340.097 139.837 339.823 139.924C339.058 140.167 338.379 140.481 337.779 140.867C337.359 141.138 336.928 141.471 336.659 141.737C336.506 141.889 336.285 142.154 336.065 142.452C335.829 142.772 335.691 142.897 335.523 142.947C335.45 142.969 335.391 142.971 335.296 142.956C335.2 142.94 335.139 142.919 335.036 142.866C334.899 142.796 334.811 142.737 334.646 142.607C334.434 142.44 334.283 142.298 333.923 141.929C333.593 141.59 333.452 141.461 333.316 141.371C333.267 141.34 333.199 141.303 333.167 141.29C333.114 141.27 333.096 141.268 333.032 141.27C332.964 141.273 332.955 141.275 332.911 141.301C332.777 141.378 332.678 141.548 332.614 141.804C332.594 141.885 332.584 141.936 332.564 142.078C332.553 142.145 332.544 142.429 332.548 142.544C332.557 142.809 332.606 143.09 332.681 143.301C332.838 143.746 333.274 144.191 333.836 144.481C334.139 144.637 334.523 144.746 334.792 144.754C334.847 144.756 334.859 144.759 334.855 144.769C334.849 144.789 334.819 144.955 334.808 145.031C334.802 145.069 334.791 145.149 334.782 145.206C334.709 145.711 334.676 146.364 334.703 146.774C334.715 146.956 334.75 147.302 334.76 147.34C334.763 147.351 334.77 147.392 334.777 147.432C334.819 147.717 334.917 148.108 335.03 148.455C335.197 148.965 335.366 149.311 335.801 150.029C336.024 150.398 336.141 150.616 336.237 150.843C336.457 151.36 336.532 151.917 336.466 152.526C336.418 152.97 336.318 153.461 336.172 153.967C335.965 154.682 335.817 155.124 335.64 155.549C335.518 155.841 335.484 155.964 335.457 156.21C335.451 156.264 335.444 156.327 335.441 156.35C335.433 156.421 335.447 156.72 335.462 156.803C335.508 157.055 335.58 157.24 335.776 157.607C335.901 157.841 335.942 157.929 336.038 158.162C336.064 158.225 336.106 158.308 336.133 158.347C336.167 158.4 336.182 158.432 336.187 158.467C336.193 158.506 336.217 158.599 336.253 158.728C336.273 158.804 336.283 158.896 336.297 159.101C336.312 159.344 336.325 159.77 336.324 160.003C336.322 160.265 336.315 160.712 336.31 160.923C336.307 161.042 336.301 161.25 336.298 161.384C336.292 161.569 336.297 161.803 336.314 162.342C336.326 162.733 336.336 163.171 336.336 163.314C336.334 163.563 336.336 164.025 336.339 164.489C336.341 164.738 336.366 165.179 336.385 165.297C336.436 165.627 336.461 166.059 336.455 166.513C336.452 166.769 336.461 167.043 336.477 167.155C336.521 167.456 336.595 167.722 336.67 167.847C336.706 167.905 336.848 167.973 337.08 168.04C337.449 168.149 337.77 168.194 338.283 168.208C338.585 168.217 339.498 168.213 339.925 168.2L340.236 168.191L340.238 168.249C340.241 168.336 340.311 169.052 340.35 169.403C340.364 169.521 340.368 169.53 340.433 169.571C340.729 169.759 341.427 169.914 342.255 169.974C342.319 169.979 342.379 169.984 342.389 169.986C342.399 169.987 342.443 169.99 342.486 169.993C342.529 169.996 342.599 170 342.643 170.003C342.985 170.026 343.241 170.025 343.517 170.001C344.162 169.943 344.563 169.846 344.659 169.723L344.686 169.69L344.68 169.542C344.674 169.418 344.669 169.374 344.646 169.277C344.547 168.876 344.422 168.589 344.189 168.228C343.952 167.862 343.766 167.649 343.236 167.137C342.778 166.694 342.744 166.66 342.611 166.501C342.518 166.389 342.441 166.273 342.384 166.158C342.193 165.775 342.091 165.553 341.904 165.12C341.782 164.838 341.708 164.657 341.607 164.402C341.498 164.123 341.463 164.032 341.17 163.25C341.065 162.974 340.931 162.632 340.822 162.366C340.727 162.138 340.716 162.111 340.493 161.591C340.063 160.586 339.865 160.074 339.624 159.341C339.515 159.012 339.506 158.982 339.453 158.788C339.383 158.532 339.338 158.328 339.311 158.135C339.207 157.409 339.339 156.811 339.713 156.302C339.837 156.133 339.94 156.024 340.16 155.828C340.619 155.416 340.988 155.137 341.984 154.447C342.803 153.88 343.089 153.667 343.351 153.43C343.567 153.235 343.673 153.127 344.078 152.687C344.461 152.272 344.645 152.083 344.807 151.941C345.009 151.762 345.168 151.663 345.273 151.651C345.334 151.644 345.454 151.661 345.569 151.694C345.647 151.717 346.283 151.936 346.728 152.094C347.299 152.297 347.749 152.442 348.013 152.507C348.455 152.617 349.384 152.752 350.001 152.797C350.154 152.809 350.349 152.812 350.622 152.808C350.86 152.803 351.04 152.802 351.224 152.802C351.277 152.802 351.386 152.802 351.467 152.801C351.548 152.801 351.635 152.802 351.66 152.802C351.686 152.803 351.794 152.803 351.899 152.802C352.006 152.8 352.1 152.801 352.111 152.802C352.16 152.808 352.752 152.795 353.303 152.776C353.909 152.755 353.916 152.755 353.92 152.77C353.925 152.788 353.981 153.246 354.01 153.507C354.021 153.612 354.04 153.772 354.05 153.863C354.061 153.954 354.079 154.122 354.091 154.237C354.126 154.574 354.241 155.575 354.276 155.856C354.332 156.303 354.344 156.42 354.398 156.968C354.41 157.093 354.426 157.257 354.433 157.331C354.47 157.697 354.501 158.078 354.531 158.561C354.577 159.262 354.604 159.631 354.62 159.771C354.63 159.866 354.641 159.978 354.67 160.305C354.675 160.351 354.686 160.48 354.694 160.591C354.703 160.701 354.721 160.913 354.734 161.062C354.746 161.211 354.76 161.38 354.765 161.437C354.77 161.495 354.777 161.568 354.78 161.6C354.784 161.631 354.796 161.776 354.809 161.921C354.822 162.065 354.836 162.221 354.84 162.268C354.892 162.811 354.893 162.826 354.929 163.246C354.964 163.65 354.986 164.016 355.019 164.755C355.063 165.739 355.096 166.224 355.143 166.566C355.215 167.097 355.276 167.413 355.388 167.816C355.507 168.249 355.509 168.267 355.445 168.816C355.407 169.146 355.392 169.269 355.382 169.353C355.339 169.676 355.329 169.89 355.346 170.184C355.357 170.38 355.378 170.515 355.413 170.612C355.455 170.731 355.481 170.748 355.736 170.832C356.015 170.923 356.527 171.02 356.884 171.048C357.109 171.067 357.167 171.069 357.422 171.074C358.111 171.085 358.99 170.993 359.446 170.861C359.855 170.743 359.904 170.485 359.621 169.953C359.508 169.741 359.283 169.39 359.041 169.048C358.992 168.979 358.881 168.845 358.633 168.556C358.293 168.161 358.126 167.912 358.001 167.619C357.936 167.465 357.912 167.375 357.901 167.241C357.865 166.837 357.819 166.54 357.738 166.2C357.685 165.978 357.657 165.87 357.597 165.677C357.572 165.597 357.53 165.454 357.504 165.359C357.477 165.263 357.442 165.138 357.425 165.078C357.377 164.913 357.333 164.675 357.304 164.431C357.286 164.272 357.271 163.531 357.279 163.156C357.28 163.108 357.282 162.919 357.283 162.738C357.285 162.379 357.288 162.276 357.307 161.814C357.336 161.077 357.359 160.695 357.41 160.077C357.43 159.842 357.467 159.471 357.485 159.326C357.49 159.281 357.5 159.204 357.506 159.155C357.543 158.852 357.587 158.517 357.619 158.29C357.627 158.232 357.639 158.151 357.645 158.111C357.661 157.991 357.675 157.897 357.724 157.592C357.767 157.315 357.859 156.711 357.898 156.443C357.93 156.228 357.991 155.81 357.999 155.753C358.095 155.079 358.315 153.984 358.475 153.39C358.628 152.819 358.792 152.428 358.889 152.403C359.009 152.374 359.271 152.642 359.64 153.175C359.968 153.651 360.411 154.418 360.886 155.338C360.965 155.491 361.073 155.697 361.126 155.795C361.379 156.267 361.564 156.635 362.021 157.571C362.192 157.925 362.361 158.271 362.396 158.34C362.43 158.41 362.528 158.606 362.614 158.779C362.869 159.291 362.89 159.333 363.124 159.781C363.318 160.153 363.414 160.334 363.584 160.653C363.617 160.715 363.664 160.804 363.687 160.851C363.728 160.931 363.931 161.4 364.047 161.683C364.309 162.319 364.432 162.618 364.554 162.918C364.902 163.778 365.06 164.17 365.233 164.608C365.335 164.867 365.49 165.257 365.577 165.476C365.664 165.695 365.762 165.943 365.795 166.027C365.828 166.111 365.863 166.201 365.873 166.226C365.914 166.322 366.028 166.624 366.095 166.815C366.134 166.925 366.189 167.076 366.215 167.152L366.265 167.29L366.279 167.693C366.292 168.065 366.292 168.173 366.277 168.546C366.268 168.763 366.274 169.083 366.29 169.209C366.305 169.337 366.316 169.374 366.366 169.487C366.397 169.555 366.4 169.56 366.484 169.624C366.552 169.678 366.585 169.698 366.649 169.721C366.731 169.752 366.963 169.811 367.073 169.829C367.253 169.858 367.551 169.896 367.846 169.926C367.923 169.934 368.056 169.949 368.141 169.958C368.286 169.974 368.517 169.995 368.695 170.008C369.094 170.039 369.631 170.017 369.957 169.956C370.186 169.914 370.389 169.852 370.494 169.794C370.563 169.756 370.616 169.706 370.644 169.654C370.662 169.616 370.666 169.601 370.663 169.54C370.657 169.425 370.496 168.967 370.388 168.763C370.306 168.607 370.155 168.361 370.071 168.247C370.052 168.219 370.004 168.153 369.965 168.099C369.832 167.911 369.68 167.71 369.609 167.627C369.499 167.498 369.245 167.226 369.013 166.989C368.587 166.554 368.519 166.48 368.455 166.382C368.266 166.094 367.951 165.432 367.724 164.843C367.698 164.776 367.663 164.688 367.648 164.648C367.623 164.583 367.575 164.457 367.459 164.143C367.418 164.029 367.355 163.852 367.236 163.522C367.189 163.39 367.138 163.25 367.125 163.212C367.11 163.174 367.051 163.005 366.991 162.837C366.874 162.503 366.697 162.009 366.651 161.887C366.635 161.845 366.601 161.751 366.575 161.68C366.548 161.608 366.51 161.503 366.488 161.447C366.452 161.35 366.436 161.306 366.355 161.085C366.338 161.038 366.305 160.945 366.28 160.88C366.175 160.597 366.099 160.389 366.072 160.314C366.042 160.23 365.795 159.56 365.681 159.253C365.355 158.373 365.177 157.799 364.852 156.56C364.825 156.459 364.792 156.334 364.778 156.284C364.764 156.233 364.724 156.077 364.688 155.938C364.652 155.798 364.616 155.66 364.608 155.63C364.6 155.601 364.576 155.509 364.556 155.427C364.523 155.295 364.421 154.893 364.405 154.831C364.387 154.763 364.214 154.073 364.197 154.001C364.122 153.688 364.084 153.528 364.042 153.335C363.979 153.054 363.903 152.655 363.883 152.503C363.879 152.472 363.868 152.395 363.859 152.334C363.849 152.272 363.835 152.154 363.827 152.071C363.818 151.989 363.808 151.893 363.804 151.86C363.794 151.773 363.775 151.224 363.779 151.123C363.785 150.977 363.792 150.814 363.795 150.785C363.797 150.77 363.799 150.733 363.802 150.703C363.809 150.598 363.845 150.363 363.862 150.308C363.865 150.301 363.913 150.259 363.971 150.215C364.819 149.566 365.075 149.361 365.368 149.095C365.819 148.683 366.093 148.352 366.401 147.84C366.468 147.729 366.642 147.406 366.716 147.255C366.956 146.769 367.095 146.401 367.215 145.949C367.367 145.375 367.404 145.004 367.381 144.309C367.358 143.601 367.248 142.78 367.084 142.086C366.957 141.548 366.582 140.586 366.158 139.714C366.013 139.414 365.992 139.373 365.824 139.047C365.428 138.282 365.081 137.653 364.609 136.844C363.963 135.739 363.587 134.984 363.286 134.187C363.146 133.818 363.126 133.763 363.086 133.633C363.072 133.585 363.055 133.538 363.051 133.53C363.043 133.514 363.007 133.388 362.992 133.318C362.988 133.299 362.981 133.28 362.977 133.276C362.972 133.272 362.962 133.229 362.952 133.18C362.942 133.132 362.929 133.078 362.923 133.061C362.918 133.044 362.905 132.99 362.896 132.942C362.887 132.893 362.874 132.831 362.869 132.803C362.864 132.775 362.854 132.718 362.847 132.674C362.841 132.63 362.83 132.575 362.824 132.55C362.818 132.527 362.809 132.473 362.806 132.433C362.802 132.393 362.792 132.303 362.785 132.232C362.76 131.991 362.76 131.753 362.781 131.581C362.814 131.326 362.841 131.214 362.906 131.07C362.972 130.924 363.143 130.804 363.344 130.762C363.395 130.751 363.448 130.739 363.463 130.734C363.517 130.719 363.814 130.698 364.018 130.695C364.251 130.691 364.558 130.699 364.662 130.712C364.699 130.717 364.769 130.721 364.816 130.722C364.863 130.723 364.909 130.727 364.918 130.73C364.927 130.734 364.976 130.738 365.026 130.74C365.076 130.74 365.122 130.744 365.127 130.747C365.133 130.75 365.168 130.754 365.205 130.756C365.243 130.758 365.3 130.762 365.333 130.768C365.365 130.773 365.408 130.776 365.429 130.775C365.45 130.774 365.486 130.777 365.51 130.781C365.557 130.788 365.695 130.801 365.818 130.809C365.864 130.812 365.91 130.817 365.92 130.82C365.93 130.823 365.97 130.827 366.007 130.829C366.045 130.83 366.091 130.834 366.109 130.837C366.126 130.841 366.187 130.848 366.243 130.852C366.299 130.856 366.386 130.864 366.436 130.869C366.487 130.872 366.578 130.88 366.639 130.884C366.7 130.889 366.793 130.896 366.846 130.9C367.101 130.921 367.266 130.924 367.564 130.914C367.88 130.903 367.931 130.899 367.993 130.886C368.014 130.882 368.047 130.875 368.066 130.872C368.084 130.869 368.113 130.861 368.13 130.855C368.145 130.848 368.159 130.845 368.159 130.847C368.159 130.85 368.258 130.805 368.304 130.78C368.341 130.76 368.539 130.674 368.549 130.674C368.554 130.674 368.578 130.664 368.602 130.653C368.627 130.641 368.651 130.632 368.657 130.631C368.678 130.631 368.899 130.526 368.952 130.491C368.983 130.472 369.029 130.434 369.057 130.407C369.124 130.342 369.137 130.3 369.149 130.106C369.166 129.829 369.131 129.566 369.056 129.419C369.052 129.411 369.039 129.387 369.028 129.368C368.995 129.303 368.737 129.088 368.553 128.97C368.296 128.807 368.14 128.704 368.097 128.67C368.086 128.661 368.046 128.633 368.007 128.607C367.968 128.581 367.921 128.549 367.903 128.536C367.853 128.5 367.741 128.425 367.64 128.36C367.59 128.327 367.501 128.269 367.442 128.23C367.382 128.191 367.327 128.157 367.318 128.153C367.31 128.15 367.271 128.125 367.234 128.097C367.154 128.039 367.017 127.947 366.979 127.924C366.929 127.894 366.571 127.622 366.537 127.588C366.518 127.569 366.474 127.531 366.44 127.504C366.376 127.45 366.276 127.345 366.166 127.213C366.13 127.169 366.072 127.109 366.04 127.077C366.007 127.046 365.955 126.996 365.923 126.965C365.824 126.868 365.504 126.622 365.305 126.491C365.132 126.376 365.125 126.372 364.952 126.27C364.865 126.218 364.767 126.161 364.736 126.142C364.705 126.123 364.621 126.078 364.549 126.042C364.382 125.957 364.393 125.963 364.312 125.927C364.215 125.883 364.095 125.818 364.083 125.804C364.07 125.787 364.13 125.724 364.236 125.644C364.46 125.477 364.576 125.379 364.634 125.309C364.649 125.291 364.663 125.275 364.666 125.273C364.675 125.266 364.725 125.167 364.725 125.157C364.725 125.152 364.728 125.146 364.734 125.145C364.749 125.139 364.76 125.051 364.752 124.993C364.739 124.898 364.688 124.775 364.638 124.716C364.502 124.558 364.305 124.462 364.047 124.433C363.946 124.421 363.665 124.433 363.534 124.454C363.436 124.471 363.213 124.522 363.173 124.538C363.155 124.545 363.155 124.545 363.172 124.523C363.18 124.51 363.201 124.479 363.218 124.453C363.234 124.427 363.284 124.361 363.328 124.305C363.372 124.249 363.409 124.198 363.412 124.192C363.414 124.186 363.509 124.058 363.623 123.909C363.737 123.76 363.852 123.61 363.878 123.575C363.905 123.54 363.932 123.507 363.937 123.503C363.944 123.498 363.986 123.446 364.033 123.387C364.166 123.218 364.228 123.142 364.309 123.052C364.383 122.968 364.573 122.782 364.648 122.719C364.67 122.7 364.772 122.613 364.875 122.524C364.977 122.435 365.136 122.3 365.227 122.225C365.386 122.092 365.864 121.672 366.025 121.522C366.116 121.439 366.35 121.206 366.453 121.098C366.674 120.863 366.901 120.573 367.052 120.331C367.27 119.981 367.642 119.248 367.862 118.732C367.892 118.661 367.922 118.591 367.929 118.579C367.94 118.554 367.99 118.437 368.049 118.292C368.27 117.755 368.35 117.582 368.556 117.204C368.735 116.873 368.769 116.803 368.795 116.704C368.814 116.633 368.814 116.607 368.799 116.563C368.771 116.49 368.651 116.445 368.543 116.467C368.269 116.524 367.872 116.885 367.371 117.534C367.218 117.733 367.081 117.922 366.811 118.304C366.723 118.429 366.638 118.548 366.623 118.57C366.607 118.592 366.54 118.689 366.474 118.785C365.952 119.542 365.584 120.018 365.398 120.177C365.315 120.249 365.278 120.256 365.248 120.207C365.18 120.097 365.192 119.695 365.281 119.109C365.331 118.783 365.354 118.636 365.364 118.579C365.37 118.542 365.379 118.493 365.383 118.47C365.391 118.42 365.425 118.208 365.436 118.135C365.441 118.107 365.448 118.064 365.452 118.041C365.47 117.923 365.5 117.704 365.517 117.562C365.521 117.528 365.527 117.475 365.531 117.445C365.544 117.339 365.565 117.133 365.572 117.048C365.575 117.001 365.584 116.887 365.591 116.795C365.64 116.159 365.62 114.638 365.559 114.299C365.543 114.205 365.521 114.155 365.484 114.126C365.458 114.105 365.446 114.102 365.41 114.103C365.339 114.106 365.275 114.14 365.183 114.223C364.976 114.411 364.816 114.738 364.691 115.232C364.621 115.509 364.591 115.669 364.517 116.17C364.438 116.699 364.36 116.984 364.175 117.414C364.028 117.754 363.83 118.143 363.725 118.297C363.661 118.391 363.623 118.429 363.585 118.437C363.539 118.445 363.433 118.433 363.16 118.388C362.7 118.311 362.504 118.291 362.284 118.299C362.094 118.305 361.987 118.336 361.902 118.407C361.804 118.489 361.836 118.577 362.015 118.712C362.061 118.748 362.129 118.797 362.166 118.822C362.203 118.846 362.252 118.881 362.276 118.899C362.331 118.943 362.378 118.966 362.512 119.02C362.664 119.081 362.752 119.129 362.823 119.186C362.966 119.302 363.034 119.458 363.027 119.653C363.021 119.818 363.046 120.281 363.076 120.541C363.092 120.681 363.089 120.963 363.072 121.08C363.051 121.219 362.981 121.429 362.934 121.496C362.921 121.515 362.893 121.555 362.871 121.586C362.821 121.659 362.638 121.864 362.502 122.003C362.267 122.241 362.227 122.281 362.038 122.449C361.773 122.688 361.517 122.884 361.373 122.96C361.317 122.989 361.135 123.048 361.039 123.068C360.856 123.106 360.616 123.117 360.467 123.093C360.366 123.076 360.23 123.041 360.16 123.013C360.087 122.983 359.972 122.899 359.899 122.823C359.785 122.703 359.726 122.598 359.665 122.413C359.599 122.213 359.582 122.13 359.57 121.957C359.553 121.709 359.571 121.568 359.675 121.118C359.74 120.842 359.776 120.603 359.791 120.363C359.796 120.289 359.807 120.128 359.815 120.006C359.873 119.18 359.887 118.724 359.871 118.271C359.86 117.956 359.853 117.865 359.81 117.598C359.792 117.483 359.785 117.208 359.796 117.045C359.801 116.967 359.806 116.9 359.808 116.897C359.81 116.895 359.812 116.872 359.815 116.845C359.817 116.819 359.827 116.739 359.837 116.666C359.891 116.299 359.881 116.208 359.786 116.18C359.617 116.132 359.278 116.354 359.093 116.632C358.973 116.813 358.936 116.956 358.869 117.492C358.817 117.904 358.782 118.101 358.722 118.312C358.684 118.449 358.667 118.518 358.597 118.815C358.569 118.938 358.532 119.086 358.517 119.144C358.424 119.482 358.337 119.601 358.264 119.487C358.2 119.389 358.138 119.161 357.969 118.411C357.9 118.103 357.82 117.779 357.747 117.504C357.705 117.346 357.633 117.114 357.574 116.936C357.504 116.731 357.472 116.621 357.404 116.345C357.341 116.087 357.292 115.814 357.266 115.577C357.253 115.45 357.241 115.03 357.249 114.931C357.25 114.916 357.253 114.867 357.254 114.822C357.272 114.363 357.368 113.826 357.523 113.32C357.719 112.676 358.05 112.089 358.813 111.03C359.28 110.382 359.403 110.193 359.446 110.056C359.48 109.949 359.452 109.839 359.372 109.768C359.313 109.714 359.198 109.691 359.084 109.71ZM338.795 163.79C338.926 164.107 339.015 164.336 339.144 164.678C339.214 164.863 339.275 165.024 339.28 165.035C339.285 165.047 339.287 165.057 339.285 165.057C339.278 165.057 339.072 164.876 339.002 164.807C338.889 164.697 338.79 164.578 338.757 164.509C338.716 164.428 338.699 164.305 338.698 164.092C338.698 163.963 338.715 163.607 338.721 163.613C338.722 163.614 338.755 163.693 338.795 163.79Z" fill="#EFE4A4"/>
</g>
<line x1="299" y1="172" x2="299" y2="65" stroke="#EFE4A4" stroke-width="8"/>
<line x1="158" y1="282" x2="158" y2="172" stroke="#EFE4A4" stroke-width="8"/>
<line x1="158" y1="493" x2="158" y2="385" stroke="#EFE4A4" stroke-width="8"/>
<line x1="299" y1="388" x2="299" y2="279" stroke="#EFE4A4" stroke-width="8"/>
<line x1="70" y1="65.5" x2="392" y2="65.5" stroke="#1B1B1B" stroke-width="3"/>
<line x1="71.5" y1="172" x2="71.5" y2="67" stroke="#1B1B1B" stroke-width="3"/>
<line x1="390.5" y1="282" x2="390.5" y2="172" stroke="#1B1B1B" stroke-width="3"/>
<line x1="69.5" y1="388.009" x2="69.5" y2="279.009" stroke="#1B1B1B" stroke-width="3"/>
<line x1="390.5" y1="493" x2="390.5" y2="385" stroke="#1B1B1B" stroke-width="3"/>
<line x1="70" y1="170.5" x2="392" y2="170.5" stroke="#1B1B1B" stroke-width="3"/>
<line x1="70" y1="280.5" x2="392" y2="280.5" stroke="#1B1B1B" stroke-width="3"/>
<line x1="162" y1="174.5" x2="389" y2="174.5" stroke="#EFE4A4" stroke-width="5"/>
<line x1="73" y1="69.5" x2="299" y2="69.5" stroke="#EFE4A4" stroke-width="5"/>
<line x1="71" y1="284.5" x2="295" y2="284.5" stroke="#EFE4A4" stroke-width="5"/>
<line x1="162" y1="390.5" x2="388" y2="390.5" stroke="#EFE4A4" stroke-width="5"/>
<line x1="70" y1="386.5" x2="392" y2="386.5" stroke="#1B1B1B" stroke-width="3"/>
<line x1="67" y1="491.5" x2="389" y2="491.5" stroke="#1B1B1B" stroke-width="3"/>
<path d="M97.514 215.168C97.3257 215.263 97.1818 215.442 97.1375 215.642C97.0821 215.916 97.0267 215.947 96.6723 215.947C96.0632 215.947 95.5316 216.263 95.2547 216.789C95.1107 217.042 95 217.378 95 217.526C95.0111 217.978 95.4098 218.662 95.7974 218.894C96.1629 219.104 96.3179 219.104 112.011 219.104H127.859L128.236 218.862C128.69 218.578 129 218.031 129 217.526C129 216.715 128.258 215.947 127.461 215.947C127.117 215.947 127.04 215.894 126.896 215.6C126.685 215.179 126.264 214.947 125.866 215.042C125.511 215.126 125.124 215.495 125.124 215.758C125.124 215.937 124.592 215.947 112.055 215.947C100.227 215.947 98.987 215.937 98.987 215.779C98.987 215.526 98.3668 215 98.0788 215C97.9349 215.011 97.6801 215.084 97.514 215.168Z" fill="#EFE4A4"/>
<path d="M96.7942 220.083C96.4951 220.388 96.4841 220.893 96.7609 221.219L96.9714 221.472H111.978C126.575 221.472 126.984 221.461 127.217 221.272C127.527 220.998 127.538 220.346 127.228 220.051C127.007 219.841 126.863 219.841 112.022 219.841H97.0267L96.7942 220.083Z" fill="#EFE4A4"/>
<path d="M96.8272 222.314C96.65 222.472 96.5503 222.693 96.5503 222.893C96.5503 223.093 96.65 223.313 96.8272 223.471L97.093 223.734H112.033H126.973L127.206 223.492C127.56 223.135 127.538 222.556 127.161 222.272L126.862 222.051H111.978H97.093L96.8272 222.314Z" fill="#EFE4A4"/>
<path d="M97.7021 224.25C96.6168 224.882 96.5171 227.218 97.5249 228.081C97.7464 228.27 97.7464 228.27 97.4252 228.944C96.3288 231.259 96.2734 234.174 97.2923 236.784C97.6356 237.625 97.691 237.92 97.7021 238.678C97.7021 239.488 97.6689 239.667 97.2702 240.572C96.8715 241.477 96.8383 241.656 96.8383 242.466C96.8493 243.445 96.9712 243.971 97.392 244.96L97.6799 245.623L97.3477 245.981C96.6057 246.791 96.6278 248.486 97.4031 249.327C97.5471 249.475 97.5471 249.538 97.4031 249.801C97.0044 250.527 96.6389 251.916 96.5835 252.905C96.4949 254.347 96.7054 255.62 97.2923 257.304C97.9014 259.03 97.9014 259.493 97.2813 260.914C97.0487 261.429 96.8383 262.071 96.805 262.345C96.7275 262.966 97.0155 264.365 97.3699 265.134L97.6246 265.681L97.3699 265.965C97.0819 266.291 96.7718 267.165 96.7718 267.67C96.7718 268.206 97.093 269.08 97.4142 269.417C97.6467 269.659 97.8461 269.753 98.2115 269.796C98.8096 269.859 99.1972 269.617 99.5627 268.954C100.05 268.08 99.8285 266.365 99.1751 265.839C99.02 265.723 99.0422 265.639 99.2747 265.144C99.6624 264.355 99.906 263.166 99.8396 262.408C99.8063 261.987 99.6402 261.471 99.3633 260.882C98.9868 260.082 98.9425 259.893 98.9425 259.146C98.9425 258.43 99.0089 258.157 99.3412 257.346C100.338 254.957 100.349 252.19 99.3966 250.127C99.1308 249.559 99.1308 249.548 99.3301 249.296C99.5959 248.97 99.8728 248.117 99.8728 247.623C99.8728 247.044 99.5738 246.223 99.2526 245.886L98.9646 245.592L99.2526 245.002C99.6291 244.192 99.9171 242.782 99.8396 242.056C99.8063 241.708 99.607 241.067 99.3633 240.519C98.9868 239.677 98.9425 239.478 98.9425 238.73C98.9425 238.025 99.0089 237.699 99.3523 236.784C100.427 233.932 100.349 231.059 99.1529 228.786L98.8982 228.312L99.2637 227.912C99.7067 227.428 99.9282 226.66 99.8396 225.934C99.6513 224.461 98.6656 223.692 97.7021 224.25Z" fill="#EFE4A4"/>
<path d="M125.357 224.324C124.825 224.745 124.57 225.334 124.57 226.165C124.57 226.997 124.714 227.439 125.135 227.965L125.456 228.344L125.124 229.017C124.028 231.248 123.983 234.005 125.013 236.805C125.622 238.446 125.611 239.014 125.002 240.54C124.603 241.53 124.548 241.782 124.559 242.466C124.57 243.35 124.781 244.245 125.179 245.065L125.434 245.613L125.213 245.802C124.415 246.476 124.338 248.538 125.08 249.317C125.246 249.485 125.235 249.559 124.969 250.18C124.017 252.453 124.028 254.631 125.013 257.325C125.611 258.946 125.611 259.462 125.002 260.893C124.615 261.819 124.548 262.061 124.559 262.734C124.57 263.618 124.714 264.271 125.091 265.081C125.312 265.586 125.334 265.67 125.19 265.818C124.537 266.502 124.371 267.996 124.836 268.954C125.135 269.553 125.545 269.827 126.132 269.827C126.586 269.827 127.273 269.196 127.439 268.617C127.716 267.67 127.538 266.565 127.018 266.018L126.719 265.702L126.974 265.197C127.317 264.513 127.56 263.492 127.56 262.682C127.56 262.134 127.472 261.819 127.106 260.945C126.486 259.525 126.475 258.851 127.051 257.409C128.059 254.894 128.081 252.242 127.117 250.096L126.896 249.601L127.228 248.959C127.76 247.949 127.66 246.676 127.007 245.918L126.708 245.581L126.974 245.013C127.704 243.424 127.738 241.951 127.051 240.414C126.475 239.099 126.486 238.457 127.095 236.731C128.114 233.847 128.103 231.69 127.051 229.186C126.663 228.27 126.663 228.27 126.885 228.06C127.273 227.691 127.483 227.176 127.538 226.46C127.627 225.176 127.062 224.198 126.154 224.082C125.788 224.04 125.656 224.082 125.357 224.324Z" fill="#EFE4A4"/>
<path d="M100.693 225.229C101.302 232.511 103.616 238.783 106.895 242.024C107.925 243.045 108.811 243.655 109.841 244.045C110.494 244.297 110.594 244.381 110.893 244.897C111.192 245.413 111.225 245.56 111.225 246.412C111.225 247.244 111.181 247.423 110.915 247.917C110.749 248.222 110.516 248.496 110.416 248.538C110.317 248.57 109.829 248.78 109.342 249.001C105.355 250.843 102.166 256.957 100.992 264.986C100.87 265.828 100.737 266.986 100.704 267.565C100.67 268.143 100.615 268.796 100.593 269.017L100.538 269.406H112.011H123.485L123.418 268.48C123.164 265.26 122.743 262.692 122.078 260.303C120.395 254.21 117.538 250.064 114.115 248.738C113.329 248.433 113.229 248.349 112.942 247.696C112.521 246.781 112.631 245.444 113.185 244.687C113.362 244.445 113.672 244.245 114.182 244.045C117.36 242.792 120.162 238.783 121.846 233.079C122.532 230.764 123.119 227.649 123.308 225.26L123.385 224.366H112H100.615L100.693 225.229ZM111.336 237.625C114.315 238.383 116.762 239.014 116.785 239.025C116.851 239.099 115.367 240.772 114.869 241.182C114.57 241.424 113.983 241.793 113.562 241.993C112.897 242.308 112.698 242.361 112 242.361C111.302 242.361 111.092 242.308 110.416 241.993C108.888 241.266 107.371 239.604 106.13 237.299C105.643 236.394 105.543 236.142 105.71 236.194C105.82 236.226 108.345 236.868 111.336 237.625ZM115.821 257.567C117.803 258.946 119.531 260.167 119.664 260.293C119.908 260.524 120.162 261.408 120.572 263.429C120.76 264.344 121.137 266.891 121.137 267.217C121.137 267.259 117.028 267.301 112.011 267.301H102.885L102.941 266.849C103.229 264.481 103.771 261.65 104.126 260.693C104.226 260.409 104.901 259.882 108.124 257.63C110.261 256.136 112.056 254.947 112.111 254.989C112.177 255.031 113.839 256.189 115.821 257.567Z" fill="#EFE4A4"/>
<path d="M96.9937 270.248C96.6504 270.574 96.6947 271.227 97.0602 271.5L97.3592 271.721H111.956C122.422 271.721 126.63 271.69 126.818 271.606C127.361 271.374 127.494 270.701 127.062 270.301L126.796 270.038H112C97.3592 270.038 97.2152 270.038 96.9937 270.248Z" fill="#EFE4A4"/>
<path d="M97.0602 272.468C96.6947 272.742 96.6504 273.395 96.9937 273.721C97.2152 273.931 97.3592 273.931 112 273.931H126.796L127.062 273.668C127.494 273.268 127.361 272.595 126.818 272.363C126.63 272.279 122.422 272.247 111.956 272.247H97.3592L97.0602 272.468Z" fill="#EFE4A4"/>
<path d="M95.7974 274.878C95.4098 275.11 95.0111 275.794 95 276.257C95 276.688 95.4651 277.414 95.886 277.625C96.1296 277.751 96.4951 277.825 96.9049 277.825C97.4697 277.825 97.5472 277.846 97.5472 278.025C97.5472 278.298 98.0567 278.667 98.4221 278.667C98.7876 278.667 99.1974 278.404 99.3192 278.077L99.43 277.825H112.277C123.795 277.825 125.124 277.846 125.124 277.983C125.124 278.077 125.246 278.267 125.401 278.404C125.888 278.877 126.741 278.667 126.951 278.035C127.007 277.877 127.117 277.825 127.438 277.825C128.258 277.825 129 277.067 129 276.246C129 275.741 128.69 275.194 128.236 274.91L127.859 274.668H112.011C96.3179 274.668 96.1629 274.668 95.7974 274.878Z" fill="#EFE4A4"/>
<defs>
<clipPath id="clip0_132_97">
<rect width="38" height="62" fill="white" transform="translate(331 110.326) rotate(-2)"/>
</clipPath>
</defs>
</svg>
